<svg xmlns="http://www.w3.org/2000/svg" width="1096" height="628" viewBox="0 0 1096 628" font-family="system-ui, -apple-system, 'Segoe UI', Roboto, Helvetica, Arial, sans-serif"><defs><filter id="entity-shadow" x="-5%" y="-5%" width="110%" height="115%"><feDropShadow dx="0" dy="1" stdDeviation="1.5" flood-color="#0f172a" flood-opacity="0.12"/></filter></defs><g><rect x="36" y="24" width="708" height="468" rx="6" fill="white" stroke="#cbd5e1" stroke-width="1.5" stroke-dasharray="4 3"/><rect x="36" y="24" width="708" height="32" fill="#475569" rx="6"/><rect x="36" y="40" width="708" height="16" fill="#475569"/><text x="48" y="45" fill="white" font-size="13" font-weight="600">Container · social</text></g><g><path d="M 340 137.6 L 372 137.6 L 372 108 L 404 108" fill="none" stroke="#7c3aed" stroke-width="1.5"/><g stroke="#7c3aed" fill="#7c3aed" stroke-linecap="round" stroke-linejoin="round" transform="translate(340 137.6)"><line x1="8" y1="0" x2="1" y2="-5" stroke-width="1.5" fill="none"/><line x1="8" y1="0" x2="1" y2="0" stroke-width="1.5" fill="none"/><line x1="8" y1="0" x2="1" y2="5" stroke-width="1.5" fill="none"/><circle cx="14" cy="0" r="2.5" fill="white" stroke-width="1.25"/></g><text x="362" y="131.6" fill="#8b5cf6" font-size="9" font-weight="500" text-anchor="start">0..*</text><path d="M 340 202.4 L 372 202.4 L 372 108 L 404 108" fill="none" stroke="#7c3aed" stroke-width="1.5"/><g stroke="#7c3aed" fill="#7c3aed" stroke-linecap="round" stroke-linejoin="round" transform="translate(340 202.4)"><line x1="8" y1="0" x2="1" y2="-5" stroke-width="1.5" fill="none"/><line x1="8" y1="0" x2="1" y2="0" stroke-width="1.5" fill="none"/><line x1="8" y1="0" x2="1" y2="5" stroke-width="1.5" fill="none"/><circle cx="14" cy="0" r="2.5" fill="white" stroke-width="1.25"/></g><text x="362" y="196.4" fill="#8b5cf6" font-size="9" font-weight="500" text-anchor="start">0..*</text></g><g><path d="M 200 80 L 200 102.0517013326447 L 386.7223201683341 102.0517013326447 L 386.7223201683341 124.1034026652894" fill="none" stroke="#7c3aed" stroke-width="1.5"/><g stroke="#7c3aed" fill="#7c3aed" stroke-linecap="round" stroke-linejoin="round" transform="translate(200 80) rotate(-90)"><line x1="8" y1="0" x2="1" y2="-5" stroke-width="1.5" fill="none"/><line x1="8" y1="0" x2="1" y2="0" stroke-width="1.5" fill="none"/><line x1="8" y1="0" x2="1" y2="5" stroke-width="1.5" fill="none"/></g><text x="206" y="62" fill="#8b5cf6" font-size="9" font-weight="500" text-anchor="start">1..*</text><path d="M 580 80 L 580 102.0517013326447 L 386.7223201683341 102.0517013326447 L 386.7223201683341 124.1034026652894" fill="none" stroke="#7c3aed" stroke-width="1.5"/><g stroke="#7c3aed" fill="#7c3aed" stroke-linecap="round" stroke-linejoin="round" transform="translate(580 80) rotate(-90)"><line x1="4" y1="-5" x2="4" y2="5" stroke-width="1.5" fill="none"/></g><text x="586" y="62" fill="#8b5cf6" font-size="9" font-weight="500" text-anchor="start">1..1</text></g><g><path d="M 200 260 L 200 219.9482986673553 L 393.2776798316659 219.9482986673553 L 393.2776798316659 179.8965973347106" fill="none" stroke="#7c3aed" stroke-width="1.5"/><g stroke="#7c3aed" fill="#7c3aed" stroke-linecap="round" stroke-linejoin="round" transform="translate(200 260) rotate(90)"><line x1="8" y1="0" x2="1" y2="-5" stroke-width="1.5" fill="none"/><line x1="8" y1="0" x2="1" y2="0" stroke-width="1.5" fill="none"/><line x1="8" y1="0" x2="1" y2="5" stroke-width="1.5" fill="none"/><circle cx="14" cy="0" r="2.5" fill="white" stroke-width="1.25"/></g><text x="206" y="282" fill="#8b5cf6" font-size="9" font-weight="500" text-anchor="start">0..*</text><path d="M 580 212 L 580 195.9482986673553 L 393.2776798316659 195.9482986673553 L 393.2776798316659 179.8965973347106" fill="none" stroke="#7c3aed" stroke-width="1.5"/><g stroke="#7c3aed" fill="#7c3aed" stroke-linecap="round" stroke-linejoin="round" transform="translate(580 212) rotate(90)"><line x1="8" y1="0" x2="1" y2="-5" stroke-width="1.5" fill="none"/><line x1="8" y1="0" x2="1" y2="0" stroke-width="1.5" fill="none"/><line x1="8" y1="0" x2="1" y2="5" stroke-width="1.5" fill="none"/><circle cx="14" cy="0" r="2.5" fill="white" stroke-width="1.25"/></g><text x="586" y="234" fill="#8b5cf6" font-size="9" font-weight="500" text-anchor="start">0..*</text></g><g><path d="M 720 122.24000000000001 L 752 122.24000000000001 L 752 146 L 784 146" fill="none" stroke="#7c3aed" stroke-width="1.5"/><g stroke="#7c3aed" fill="#7c3aed" stroke-linecap="round" stroke-linejoin="round" transform="translate(720 122.24000000000001)"><line x1="8" y1="0" x2="1" y2="-5" stroke-width="1.5" fill="none"/><line x1="8" y1="0" x2="1" y2="0" stroke-width="1.5" fill="none"/><line x1="8" y1="0" x2="1" y2="5" stroke-width="1.5" fill="none"/><circle cx="14" cy="0" r="2.5" fill="white" stroke-width="1.25"/></g><text x="742" y="116.24000000000001" fill="#8b5cf6" font-size="9" font-weight="500" text-anchor="start">0..*</text><path d="M 720 169.76 L 752 169.76 L 752 146 L 784 146" fill="none" stroke="#7c3aed" stroke-width="1.5"/><g stroke="#7c3aed" fill="#7c3aed" stroke-linecap="round" stroke-linejoin="round" transform="translate(720 169.76)"><line x1="8" y1="0" x2="1" y2="-5" stroke-width="1.5" fill="none"/><line x1="8" y1="0" x2="1" y2="0" stroke-width="1.5" fill="none"/><line x1="8" y1="0" x2="1" y2="5" stroke-width="1.5" fill="none"/><circle cx="14" cy="0" r="2.5" fill="white" stroke-width="1.25"/></g><text x="742" y="163.76" fill="#8b5cf6" font-size="9" font-weight="500" text-anchor="start">0..*</text></g><g><path d="M 580 212 L 580 231 L 390 231 L 390 250" fill="none" stroke="#7c3aed" stroke-width="1.5"/><g stroke="#7c3aed" fill="#7c3aed" stroke-linecap="round" stroke-linejoin="round" transform="translate(580 212) rotate(90)"><line x1="8" y1="0" x2="1" y2="-5" stroke-width="1.5" fill="none"/><line x1="8" y1="0" x2="1" y2="0" stroke-width="1.5" fill="none"/><line x1="8" y1="0" x2="1" y2="5" stroke-width="1.5" fill="none"/><circle cx="14" cy="0" r="2.5" fill="white" stroke-width="1.25"/></g><text x="586" y="234" fill="#8b5cf6" font-size="9" font-weight="500" text-anchor="start">0..*</text><path d="M 200 360 L 200 335 L 390 335 L 390 310" fill="none" stroke="#7c3aed" stroke-width="1.5"/><g stroke="#7c3aed" fill="#7c3aed" stroke-linecap="round" stroke-linejoin="round" transform="translate(200 360) rotate(-90)"><line x1="8" y1="0" x2="1" y2="-5" stroke-width="1.5" fill="none"/><line x1="8" y1="0" x2="1" y2="0" stroke-width="1.5" fill="none"/><line x1="8" y1="0" x2="1" y2="5" stroke-width="1.5" fill="none"/><circle cx="14" cy="0" r="2.5" fill="white" stroke-width="1.25"/></g><text x="206" y="342" fill="#8b5cf6" font-size="9" font-weight="500" text-anchor="start">0..*</text></g><g><path d="M 340 137.6 L 372 137.6 L 372 220 L 404 220" fill="none" stroke="#7c3aed" stroke-width="1.5"/><g stroke="#7c3aed" fill="#7c3aed" stroke-linecap="round" stroke-linejoin="round" transform="translate(340 137.6)"><line x1="8" y1="0" x2="1" y2="-5" stroke-width="1.5" fill="none"/><line x1="8" y1="0" x2="1" y2="0" stroke-width="1.5" fill="none"/><line x1="8" y1="0" x2="1" y2="5" stroke-width="1.5" fill="none"/><circle cx="14" cy="0" r="2.5" fill="white" stroke-width="1.25"/></g><text x="362" y="131.6" fill="#8b5cf6" font-size="9" font-weight="500" text-anchor="start">0..*</text><path d="M 340 202.4 L 372 202.4 L 372 220 L 404 220" fill="none" stroke="#7c3aed" stroke-width="1.5"/><g stroke="#7c3aed" fill="#7c3aed" stroke-linecap="round" stroke-linejoin="round" transform="translate(340 202.4)"><line x1="8" y1="0" x2="1" y2="-5" stroke-width="1.5" fill="none"/><line x1="8" y1="0" x2="1" y2="0" stroke-width="1.5" fill="none"/><line x1="8" y1="0" x2="1" y2="5" stroke-width="1.5" fill="none"/><circle cx="14" cy="0" r="2.5" fill="white" stroke-width="1.25"/></g><text x="362" y="196.4" fill="#8b5cf6" font-size="9" font-weight="500" text-anchor="start">0..*</text></g><g><rect x="60" y="80" width="280" height="180" rx="5" fill="white" stroke="#94a3b8" stroke-width="1" filter="url(#entity-shadow)"/><rect x="60" y="80" width="280" height="32" fill="#334155" rx="5"/><rect x="60" y="106" width="280" height="6" fill="#334155"/><text x="72" y="100" fill="white" font-size="13" font-weight="600">Person</text><text x="328" y="100" fill="white" font-size="10" text-anchor="end" opacity="0.85">Entity</text><rect x="61" y="112" width="278" height="24" fill="#fef9c3"/><text x="84" y="128" fill="#854d0e" font-size="12" font-weight="600">id</text><text x="328" y="128" fill="#64748b" font-size="11" text-anchor="end" font-family="ui-monospace, SFMono-Regular, Menlo, monospace">int</text><circle cx="108.19" cy="124" r="6" fill="#ca8a04"/><text x="108.19" y="127" fill="white" font-size="8" font-weight="700" text-anchor="middle">P</text><rect x="61" y="136" width="278" height="24" fill="#f8fafc"/><text x="84" y="152" fill="#0f172a" font-size="12" font-weight="400">username</text><text x="328" y="152" fill="#64748b" font-size="11" text-anchor="end" font-family="ui-monospace, SFMono-Regular, Menlo, monospace">varchar</text><circle cx="152.4" cy="148" r="6" fill="#7c3aed"/><text x="152.4" y="151" fill="white" font-size="8" font-weight="700" text-anchor="middle">U</text><circle cx="167.4" cy="148" r="6" fill="#dc2626"/><text x="167.4" y="151" fill="white" font-size="8" font-weight="700" text-anchor="middle">!</text><text x="84" y="176" fill="#0f172a" font-size="12" font-weight="400">display_name</text><text x="328" y="176" fill="#64748b" font-size="11" text-anchor="end" font-family="ui-monospace, SFMono-Regular, Menlo, monospace">varchar</text><circle cx="174.3" cy="172" r="6" fill="#dc2626"/><text x="174.3" y="175" fill="white" font-size="8" font-weight="700" text-anchor="middle">!</text><rect x="61" y="184" width="278" height="24" fill="#f8fafc"/><text x="84" y="200" fill="#0f172a" font-size="12" font-weight="400">bio</text><text x="328" y="200" fill="#64748b" font-size="11" text-anchor="end" font-family="ui-monospace, SFMono-Regular, Menlo, monospace">varchar</text><text x="84" y="224" fill="#0f172a" font-size="12" font-weight="400">joined_at</text><text x="328" y="224" fill="#64748b" font-size="11" text-anchor="end" font-family="ui-monospace, SFMono-Regular, Menlo, monospace">timestamp</text><circle cx="148.4" cy="220" r="6" fill="#dc2626"/><text x="148.4" y="223" fill="white" font-size="8" font-weight="700" text-anchor="middle">!</text><rect x="61" y="232" width="278" height="24" fill="#f8fafc"/><text x="84" y="248" fill="#0f172a" font-size="12" font-weight="400">is_verified</text><text x="328" y="248" fill="#64748b" font-size="11" text-anchor="end" font-family="ui-monospace, SFMono-Regular, Menlo, monospace">boolean</text><circle cx="155.6" cy="244" r="6" fill="#dc2626"/><text x="155.6" y="247" fill="white" font-size="8" font-weight="700" text-anchor="middle">!</text></g><g><rect x="440" y="80" width="280" height="132" rx="5" fill="white" stroke="#94a3b8" stroke-width="1" filter="url(#entity-shadow)"/><rect x="440" y="80" width="280" height="32" fill="#334155" rx="5"/><rect x="440" y="106" width="280" height="6" fill="#334155"/><text x="452" y="100" fill="white" font-size="13" font-weight="600">Post</text><text x="708" y="100" fill="white" font-size="10" text-anchor="end" opacity="0.85">Entity</text><rect x="441" y="112" width="278" height="24" fill="#fef9c3"/><text x="464" y="128" fill="#854d0e" font-size="12" font-weight="600">id</text><text x="708" y="128" fill="#64748b" font-size="11" text-anchor="end" font-family="ui-monospace, SFMono-Regular, Menlo, monospace">int</text><circle cx="488.19" cy="124" r="6" fill="#ca8a04"/><text x="488.19" y="127" fill="white" font-size="8" font-weight="700" text-anchor="middle">P</text><rect x="441" y="136" width="278" height="24" fill="#f8fafc"/><text x="464" y="152" fill="#0f172a" font-size="12" font-weight="400">content</text><text x="708" y="152" fill="#64748b" font-size="11" text-anchor="end" font-family="ui-monospace, SFMono-Regular, Menlo, monospace">varchar</text><circle cx="519.9" cy="148" r="6" fill="#dc2626"/><text x="519.9" y="151" fill="white" font-size="8" font-weight="700" text-anchor="middle">!</text><text x="464" y="176" fill="#0f172a" font-size="12" font-weight="400">posted_at</text><text x="708" y="176" fill="#64748b" font-size="11" text-anchor="end" font-family="ui-monospace, SFMono-Regular, Menlo, monospace">timestamp</text><circle cx="533.3" cy="172" r="6" fill="#dc2626"/><text x="533.3" y="175" fill="white" font-size="8" font-weight="700" text-anchor="middle">!</text><rect x="441" y="184" width="278" height="24" fill="#f8fafc"/><text x="464" y="200" fill="#0f172a" font-size="12" font-weight="400">is_pinned</text><text x="708" y="200" fill="#64748b" font-size="11" text-anchor="end" font-family="ui-monospace, SFMono-Regular, Menlo, monospace">boolean</text><circle cx="530.9" cy="196" r="6" fill="#dc2626"/><text x="530.9" y="199" fill="white" font-size="8" font-weight="700" text-anchor="middle">!</text></g><g><rect x="60" y="360" width="280" height="108" rx="5" fill="white" stroke="#94a3b8" stroke-width="1" filter="url(#entity-shadow)"/><rect x="60" y="360" width="280" height="32" fill="#334155" rx="5"/><rect x="60" y="386" width="280" height="6" fill="#334155"/><text x="72" y="380" fill="white" font-size="13" font-weight="600">Tag</text><text x="328" y="380" fill="white" font-size="10" text-anchor="end" opacity="0.85">Entity</text><rect x="61" y="392" width="278" height="24" fill="#fef9c3"/><text x="84" y="408" fill="#854d0e" font-size="12" font-weight="600">label</text><text x="328" y="408" fill="#64748b" font-size="11" text-anchor="end" font-family="ui-monospace, SFMono-Regular, Menlo, monospace">varchar</text><circle cx="125.41" cy="404" r="6" fill="#ca8a04"/><text x="125.41" y="407" fill="white" font-size="8" font-weight="700" text-anchor="middle">P</text><rect x="61" y="416" width="278" height="24" fill="#f8fafc"/><text x="84" y="432" fill="#0f172a" font-size="12" font-weight="400">first_used_at</text><text x="328" y="432" fill="#64748b" font-size="11" text-anchor="end" font-family="ui-monospace, SFMono-Regular, Menlo, monospace">timestamp</text><circle cx="171.4" cy="428" r="6" fill="#dc2626"/><text x="171.4" y="431" fill="white" font-size="8" font-weight="700" text-anchor="middle">!</text><text x="84" y="456" fill="#0f172a" font-size="12" font-weight="400">usage_count</text><text x="328" y="456" fill="#64748b" font-size="11" text-anchor="end" font-family="ui-monospace, SFMono-Regular, Menlo, monospace">int</text><circle cx="169.2" cy="452" r="6" fill="#dc2626"/><text x="169.2" y="455" fill="white" font-size="8" font-weight="700" text-anchor="middle">!</text></g><g><rect x="404" y="54" width="280" height="108" rx="5" fill="white" stroke="#94a3b8" stroke-width="1" filter="url(#entity-shadow)"/><rect x="404" y="54" width="280" height="32" fill="#7c3aed" rx="5"/><rect x="404" y="80" width="280" height="6" fill="#7c3aed"/><path d="M 422 63 L 429 70 L 422 77 L 415 70 Z" fill="none" stroke="white" stroke-width="1.4" stroke-linejoin="round"/><circle cx="422" cy="70" r="1.8" fill="white"/><text x="436" y="74" fill="white" font-size="13" font-weight="600">FOLLOWS</text><text x="672" y="74" fill="white" font-size="10" text-anchor="end" opacity="0.85">Edge</text><text x="428" y="102" fill="#0f172a" font-size="12" font-weight="400">since</text><text x="672" y="102" fill="#64748b" font-size="11" text-anchor="end" font-family="ui-monospace, SFMono-Regular, Menlo, monospace">date</text><circle cx="471.8" cy="98" r="6" fill="#dc2626"/><text x="471.8" y="101" fill="white" font-size="8" font-weight="700" text-anchor="middle">!</text><rect x="405" y="110" width="278" height="24" fill="#f8fafc"/><text x="428" y="126" fill="#0f172a" font-size="12" font-weight="400">notifications_on</text><text x="672" y="126" fill="#64748b" font-size="11" text-anchor="end" font-family="ui-monospace, SFMono-Regular, Menlo, monospace">boolean</text><circle cx="530.6" cy="122" r="6" fill="#dc2626"/><text x="530.6" y="125" fill="white" font-size="8" font-weight="700" text-anchor="middle">!</text><text x="428" y="150" fill="#0f172a" font-size="12" font-weight="400">muted</text><text x="672" y="150" fill="#64748b" font-size="11" text-anchor="end" font-family="ui-monospace, SFMono-Regular, Menlo, monospace">boolean</text><circle cx="476.3" cy="146" r="6" fill="#dc2626"/><text x="476.3" y="149" fill="white" font-size="8" font-weight="700" text-anchor="middle">!</text></g><g><rect x="302.7223201683341" y="88.1034026652894" width="168" height="36" rx="5" fill="white" stroke="#94a3b8" stroke-width="1" filter="url(#entity-shadow)"/><rect x="302.7223201683341" y="88.1034026652894" width="168" height="32" fill="#7c3aed" rx="5"/><rect x="302.7223201683341" y="114.1034026652894" width="168" height="6" fill="#7c3aed"/><path d="M 320.7223201683341 97.1034026652894 L 327.7223201683341 104.1034026652894 L 320.7223201683341 111.1034026652894 L 313.7223201683341 104.1034026652894 Z" fill="none" stroke="white" stroke-width="1.4" stroke-linejoin="round"/><circle cx="320.7223201683341" cy="104.1034026652894" r="1.8" fill="white"/><text x="334.7223201683341" y="108.1034026652894" fill="white" font-size="13" font-weight="600">AUTHORED</text><text x="458.7223201683341" y="108.1034026652894" fill="white" font-size="10" text-anchor="end" opacity="0.85">Edge</text></g><g><rect x="253.27767983166592" y="179.8965973347106" width="280" height="60" rx="5" fill="white" stroke="#94a3b8" stroke-width="1" filter="url(#entity-shadow)"/><rect x="253.27767983166592" y="179.8965973347106" width="280" height="32" fill="#7c3aed" rx="5"/><rect x="253.27767983166592" y="205.8965973347106" width="280" height="6" fill="#7c3aed"/><path d="M 271.2776798316659 188.8965973347106 L 278.2776798316659 195.8965973347106 L 271.2776798316659 202.8965973347106 L 264.2776798316659 195.8965973347106 Z" fill="none" stroke="white" stroke-width="1.4" stroke-linejoin="round"/><circle cx="271.2776798316659" cy="195.8965973347106" r="1.8" fill="white"/><text x="285.2776798316659" y="199.8965973347106" fill="white" font-size="13" font-weight="600">LIKED</text><text x="521.2776798316659" y="199.8965973347106" fill="white" font-size="10" text-anchor="end" opacity="0.85">Edge</text><text x="277.2776798316659" y="227.8965973347106" fill="#0f172a" font-size="12" font-weight="400">at</text><text x="521.2776798316659" y="227.8965973347106" fill="#64748b" font-size="11" text-anchor="end" font-family="ui-monospace, SFMono-Regular, Menlo, monospace">timestamp</text><circle cx="302.18" cy="223.8965973347106" r="6" fill="#dc2626"/><text x="302.18" y="226.8965973347106" fill="white" font-size="8" font-weight="700" text-anchor="middle">!</text></g><g><rect x="784" y="116" width="280" height="60" rx="5" fill="white" stroke="#94a3b8" stroke-width="1" filter="url(#entity-shadow)"/><rect x="784" y="116" width="280" height="32" fill="#7c3aed" rx="5"/><rect x="784" y="142" width="280" height="6" fill="#7c3aed"/><path d="M 802 125 L 809 132 L 802 139 L 795 132 Z" fill="none" stroke="white" stroke-width="1.4" stroke-linejoin="round"/><circle cx="802" cy="132" r="1.8" fill="white"/><text x="816" y="136" fill="white" font-size="13" font-weight="600">REPLIED</text><text x="1052" y="136" fill="white" font-size="10" text-anchor="end" opacity="0.85">Edge</text><text x="808" y="164" fill="#0f172a" font-size="12" font-weight="400">at</text><text x="1052" y="164" fill="#64748b" font-size="11" text-anchor="end" font-family="ui-monospace, SFMono-Regular, Menlo, monospace">timestamp</text><circle cx="832.9" cy="160" r="6" fill="#dc2626"/><text x="832.9" y="163" fill="white" font-size="8" font-weight="700" text-anchor="middle">!</text></g><g><rect x="250" y="250" width="280" height="60" rx="5" fill="white" stroke="#94a3b8" stroke-width="1" filter="url(#entity-shadow)"/><rect x="250" y="250" width="280" height="32" fill="#7c3aed" rx="5"/><rect x="250" y="276" width="280" height="6" fill="#7c3aed"/><path d="M 268 259 L 275 266 L 268 273 L 261 266 Z" fill="none" stroke="white" stroke-width="1.4" stroke-linejoin="round"/><circle cx="268" cy="266" r="1.8" fill="white"/><text x="282" y="270" fill="white" font-size="13" font-weight="600">TAGGED_WITH</text><text x="518" y="270" fill="white" font-size="10" text-anchor="end" opacity="0.85">Edge</text><text x="274" y="298" fill="#0f172a" font-size="12" font-weight="400">extracted_at</text><text x="518" y="298" fill="#64748b" font-size="11" text-anchor="end" font-family="ui-monospace, SFMono-Regular, Menlo, monospace">timestamp</text><circle cx="358.4" cy="294" r="6" fill="#dc2626"/><text x="358.4" y="297" fill="white" font-size="8" font-weight="700" text-anchor="middle">!</text></g><g><rect x="404" y="178" width="280" height="84" rx="5" fill="white" stroke="#94a3b8" stroke-width="1" filter="url(#entity-shadow)"/><rect x="404" y="178" width="280" height="32" fill="#7c3aed" rx="5"/><rect x="404" y="204" width="280" height="6" fill="#7c3aed"/><path d="M 422 187 L 429 194 L 422 201 L 415 194 Z" fill="none" stroke="white" stroke-width="1.4" stroke-linejoin="round"/><circle cx="422" cy="194" r="1.8" fill="white"/><text x="436" y="198" fill="white" font-size="13" font-weight="600">BLOCKS</text><text x="672" y="198" fill="white" font-size="10" text-anchor="end" opacity="0.85">Edge</text><text x="428" y="226" fill="#0f172a" font-size="12" font-weight="400">blocked_at</text><text x="672" y="226" fill="#64748b" font-size="11" text-anchor="end" font-family="ui-monospace, SFMono-Regular, Menlo, monospace">timestamp</text><circle cx="502.8" cy="222" r="6" fill="#dc2626"/><text x="502.8" y="225" fill="white" font-size="8" font-weight="700" text-anchor="middle">!</text><rect x="405" y="234" width="278" height="24" fill="#f8fafc"/><text x="428" y="250" fill="#0f172a" font-size="12" font-weight="400">reason</text><text x="672" y="250" fill="#64748b" font-size="11" text-anchor="end" font-family="ui-monospace, SFMono-Regular, Menlo, monospace">varchar</text></g></svg>