<svg xmlns="http://www.w3.org/2000/svg" width="736" height="1240" viewBox="0 0 736 1240" font-family="system-ui, -apple-system, 'Segoe UI', Roboto, Helvetica, Arial, sans-serif"><defs><filter id="entity-shadow" x="-5%" y="-5%" width="110%" height="115%"><feDropShadow dx="0" dy="1" stdDeviation="1.5" flood-color="#0f172a" flood-opacity="0.12"/></filter></defs><g><rect x="36" y="24" width="668" height="968" rx="6" fill="white" stroke="#cbd5e1" stroke-width="1.5" stroke-dasharray="4 3"/><rect x="36" y="24" width="668" height="32" fill="#475569" rx="6"/><rect x="36" y="40" width="668" height="16" fill="#475569"/><text x="48" y="45" fill="white" font-size="13" font-weight="600">Container · registrar</text></g><g><path d="M 400 644 L 370 644 L 370 384 L 340 384" fill="none" stroke="#64748b" stroke-width="1.5"/><g stroke="#64748b" fill="#64748b" stroke-linecap="round" stroke-linejoin="round" transform="translate(400 644) scale(-1 1)"><line x1="8" y1="0" x2="1" y2="-5" stroke-width="1.5" fill="none"/><line x1="8" y1="0" x2="1" y2="0" stroke-width="1.5" fill="none"/><line x1="8" y1="0" x2="1" y2="5" stroke-width="1.5" fill="none"/><circle cx="14" cy="0" r="2.5" fill="white" stroke-width="1.25"/></g><text x="378" y="638" fill="#94a3b8" font-size="9" font-weight="500" text-anchor="end">0..*</text><g stroke="#64748b" fill="#64748b" stroke-linecap="round" stroke-linejoin="round" transform="translate(340 384)"><line x1="4" y1="-5" x2="4" y2="5" stroke-width="1.5" fill="none"/></g><text x="362" y="378" fill="#94a3b8" font-size="9" font-weight="500" text-anchor="start">1..1</text></g><g><path d="M 400 668 L 370 668 L 370 644 L 340 644" fill="none" stroke="#64748b" stroke-width="1.5"/><g stroke="#64748b" fill="#64748b" stroke-linecap="round" stroke-linejoin="round" transform="translate(400 668) scale(-1 1)"><line x1="8" y1="0" x2="1" y2="-5" stroke-width="1.5" fill="none"/><line x1="8" y1="0" x2="1" y2="0" stroke-width="1.5" fill="none"/><line x1="8" y1="0" x2="1" y2="5" stroke-width="1.5" fill="none"/><circle cx="14" cy="0" r="2.5" fill="white" stroke-width="1.25"/></g><text x="378" y="662" fill="#94a3b8" font-size="9" font-weight="500" text-anchor="end">0..*</text><g stroke="#64748b" fill="#64748b" stroke-linecap="round" stroke-linejoin="round" transform="translate(340 644)"><line x1="4" y1="-5" x2="4" y2="5" stroke-width="1.5" fill="none"/></g><text x="362" y="638" fill="#94a3b8" font-size="9" font-weight="500" text-anchor="start">1..1</text></g><g><path d="M 400 716 L 370 716 L 370 904 L 340 904" fill="none" stroke="#64748b" stroke-width="1.5"/><g stroke="#64748b" fill="#64748b" stroke-linecap="round" stroke-linejoin="round" transform="translate(400 716) scale(-1 1)"><line x1="8" y1="0" x2="1" y2="-5" stroke-width="1.5" fill="none"/><line x1="8" y1="0" x2="1" y2="0" stroke-width="1.5" fill="none"/><line x1="8" y1="0" x2="1" y2="5" stroke-width="1.5" fill="none"/><circle cx="14" cy="0" r="2.5" fill="white" stroke-width="1.25"/></g><text x="378" y="710" fill="#94a3b8" font-size="9" font-weight="500" text-anchor="end">0..*</text><g stroke="#64748b" fill="#64748b" stroke-linecap="round" stroke-linejoin="round" transform="translate(340 904)"><line x1="4" y1="-5" x2="4" y2="5" stroke-width="1.5" fill="none"/></g><text x="362" y="898" fill="#94a3b8" font-size="9" font-weight="500" text-anchor="start">1..1</text></g><g><path d="M 540 544 L 540 572 L 540 572 L 540 600" fill="none" stroke="#64748b" stroke-width="1.5"/><g stroke="#64748b" fill="#64748b" stroke-linecap="round" stroke-linejoin="round" transform="translate(540 544) rotate(90)"><line x1="8" y1="0" x2="1" y2="-5" stroke-width="1.5" fill="none"/><line x1="8" y1="0" x2="1" y2="0" stroke-width="1.5" fill="none"/><line x1="8" y1="0" x2="1" y2="5" stroke-width="1.5" fill="none"/><circle cx="14" cy="0" r="2.5" fill="white" stroke-width="1.25"/></g><text x="546" y="566" fill="#94a3b8" font-size="9" font-weight="500" text-anchor="start">0..*</text><g stroke="#64748b" fill="#64748b" stroke-linecap="round" stroke-linejoin="round" transform="translate(540 600) rotate(-90)"><line x1="4" y1="-5" x2="4" y2="5" stroke-width="1.5" fill="none"/></g><text x="546" y="582" fill="#94a3b8" font-size="9" font-weight="500" text-anchor="start">1..1</text></g><g><path d="M 400 456 L 370 456 L 370 124 L 340 124" fill="none" stroke="#64748b" stroke-width="1.5"/><g stroke="#64748b" fill="#64748b" stroke-linecap="round" stroke-linejoin="round" transform="translate(400 456) scale(-1 1)"><line x1="8" y1="0" x2="1" y2="-5" stroke-width="1.5" fill="none"/><line x1="8" y1="0" x2="1" y2="0" stroke-width="1.5" fill="none"/><line x1="8" y1="0" x2="1" y2="5" stroke-width="1.5" fill="none"/><circle cx="14" cy="0" r="2.5" fill="white" stroke-width="1.25"/></g><text x="378" y="450" fill="#94a3b8" font-size="9" font-weight="500" text-anchor="end">0..*</text><g stroke="#64748b" fill="#64748b" stroke-linecap="round" stroke-linejoin="round" transform="translate(340 124)"><line x1="4" y1="-5" x2="4" y2="5" stroke-width="1.5" fill="none"/></g><text x="362" y="118" fill="#94a3b8" font-size="9" font-weight="500" text-anchor="start">1..1</text></g><g><rect x="60" y="80" width="280" height="156" rx="5" fill="white" stroke="#94a3b8" stroke-width="1" filter="url(#entity-shadow)"/><rect x="60" y="80" width="280" height="32" fill="#334155" rx="5"/><rect x="60" y="106" width="280" height="6" fill="#334155"/><text x="72" y="100" fill="white" font-size="13" font-weight="600">students</text><text x="328" y="100" fill="white" font-size="10" text-anchor="end" opacity="0.85">Table</text><rect x="61" y="112" width="278" height="24" fill="#fef9c3"/><text x="84" y="128" fill="#854d0e" font-size="12" font-weight="600">id</text><text x="328" y="128" fill="#64748b" font-size="11" text-anchor="end" font-family="ui-monospace, SFMono-Regular, Menlo, monospace">int</text><circle cx="108.19" cy="124" r="6" fill="#ca8a04"/><text x="108.19" y="127" fill="white" font-size="8" font-weight="700" text-anchor="middle">P</text><rect x="117.19" y="118" width="18" height="12" rx="6" fill="#0e7490"/><text x="126.19" y="127" fill="white" font-size="8" font-weight="700" text-anchor="middle">dk</text><rect x="61" y="136" width="278" height="24" fill="#f8fafc"/><text x="84" y="152" fill="#0f172a" font-size="12" font-weight="400">student_no</text><text x="328" y="152" fill="#64748b" font-size="11" text-anchor="end" font-family="ui-monospace, SFMono-Regular, Menlo, monospace">varchar</text><circle cx="160" cy="148" r="6" fill="#7c3aed"/><text x="160" y="151" fill="white" font-size="8" font-weight="700" text-anchor="middle">U</text><circle cx="175" cy="148" r="6" fill="#dc2626"/><text x="175" y="151" fill="white" font-size="8" font-weight="700" text-anchor="middle">!</text><text x="84" y="176" fill="#0f172a" font-size="12" font-weight="400">full_name</text><text x="328" y="176" fill="#64748b" font-size="11" text-anchor="end" font-family="ui-monospace, SFMono-Regular, Menlo, monospace">varchar</text><circle cx="151.7" cy="172" r="6" fill="#dc2626"/><text x="151.7" y="175" fill="white" font-size="8" font-weight="700" text-anchor="middle">!</text><rect x="61" y="184" width="278" height="24" fill="#f8fafc"/><text x="84" y="200" fill="#0f172a" font-size="12" font-weight="400">email</text><text x="328" y="200" fill="#64748b" font-size="11" text-anchor="end" font-family="ui-monospace, SFMono-Regular, Menlo, monospace">varchar</text><circle cx="127.4" cy="196" r="6" fill="#7c3aed"/><text x="127.4" y="199" fill="white" font-size="8" font-weight="700" text-anchor="middle">U</text><circle cx="142.4" cy="196" r="6" fill="#dc2626"/><text x="142.4" y="199" fill="white" font-size="8" font-weight="700" text-anchor="middle">!</text><text x="84" y="224" fill="#0f172a" font-size="12" font-weight="400">enrolled_at</text><text x="328" y="224" fill="#64748b" font-size="11" text-anchor="end" font-family="ui-monospace, SFMono-Regular, Menlo, monospace">date</text><circle cx="159.3" cy="220" r="6" fill="#dc2626"/><text x="159.3" y="223" fill="white" font-size="8" font-weight="700" text-anchor="middle">!</text></g><g><rect x="60" y="340" width="280" height="132" rx="5" fill="white" stroke="#94a3b8" stroke-width="1" filter="url(#entity-shadow)"/><rect x="60" y="340" width="280" height="32" fill="#334155" rx="5"/><rect x="60" y="366" width="280" height="6" fill="#334155"/><text x="72" y="360" fill="white" font-size="13" font-weight="600">courses</text><text x="328" y="360" fill="white" font-size="10" text-anchor="end" opacity="0.85">Table</text><rect x="61" y="372" width="278" height="24" fill="#fef9c3"/><text x="84" y="388" fill="#854d0e" font-size="12" font-weight="600">code</text><text x="328" y="388" fill="#64748b" font-size="11" text-anchor="end" font-family="ui-monospace, SFMono-Regular, Menlo, monospace">varchar</text><circle cx="126.14" cy="384" r="6" fill="#ca8a04"/><text x="126.14" y="387" fill="white" font-size="8" font-weight="700" text-anchor="middle">P</text><rect x="135.14" y="378" width="18" height="12" rx="6" fill="#0e7490"/><text x="144.14" y="387" fill="white" font-size="8" font-weight="700" text-anchor="middle">dk</text><rect x="61" y="396" width="278" height="24" fill="#f8fafc"/><text x="84" y="412" fill="#0f172a" font-size="12" font-weight="400">title</text><text x="328" y="412" fill="#64748b" font-size="11" text-anchor="end" font-family="ui-monospace, SFMono-Regular, Menlo, monospace">varchar</text><circle cx="119.1" cy="408" r="6" fill="#dc2626"/><text x="119.1" y="411" fill="white" font-size="8" font-weight="700" text-anchor="middle">!</text><text x="84" y="436" fill="#0f172a" font-size="12" font-weight="400">credit_hours</text><text x="328" y="436" fill="#64748b" font-size="11" text-anchor="end" font-family="ui-monospace, SFMono-Regular, Menlo, monospace">decimal(3, 1)</text><circle cx="167.2" cy="432" r="6" fill="#dc2626"/><text x="167.2" y="435" fill="white" font-size="8" font-weight="700" text-anchor="middle">!</text><rect x="61" y="444" width="278" height="24" fill="#f8fafc"/><text x="84" y="460" fill="#0f172a" font-size="12" font-weight="400">department</text><text x="328" y="460" fill="#64748b" font-size="11" text-anchor="end" font-family="ui-monospace, SFMono-Regular, Menlo, monospace">varchar</text><circle cx="160.8" cy="456" r="6" fill="#dc2626"/><text x="160.8" y="459" fill="white" font-size="8" font-weight="700" text-anchor="middle">!</text></g><g><rect x="60" y="600" width="280" height="132" rx="5" fill="white" stroke="#94a3b8" stroke-width="1" filter="url(#entity-shadow)"/><rect x="60" y="600" width="280" height="32" fill="#334155" rx="5"/><rect x="60" y="626" width="280" height="6" fill="#334155"/><text x="72" y="620" fill="white" font-size="13" font-weight="600">terms</text><text x="328" y="620" fill="white" font-size="10" text-anchor="end" opacity="0.85">Table</text><rect x="61" y="632" width="278" height="24" fill="#fef9c3"/><text x="84" y="648" fill="#854d0e" font-size="12" font-weight="600">code</text><text x="328" y="648" fill="#64748b" font-size="11" text-anchor="end" font-family="ui-monospace, SFMono-Regular, Menlo, monospace">varchar</text><circle cx="126.14" cy="644" r="6" fill="#ca8a04"/><text x="126.14" y="647" fill="white" font-size="8" font-weight="700" text-anchor="middle">P</text><rect x="135.14" y="638" width="18" height="12" rx="6" fill="#0e7490"/><text x="144.14" y="647" fill="white" font-size="8" font-weight="700" text-anchor="middle">dk</text><rect x="61" y="656" width="278" height="24" fill="#f8fafc"/><text x="84" y="672" fill="#0f172a" font-size="12" font-weight="400">started_on</text><text x="328" y="672" fill="#64748b" font-size="11" text-anchor="end" font-family="ui-monospace, SFMono-Regular, Menlo, monospace">date</text><circle cx="157.5" cy="668" r="6" fill="#dc2626"/><text x="157.5" y="671" fill="white" font-size="8" font-weight="700" text-anchor="middle">!</text><text x="84" y="696" fill="#0f172a" font-size="12" font-weight="400">ended_on</text><text x="328" y="696" fill="#64748b" font-size="11" text-anchor="end" font-family="ui-monospace, SFMono-Regular, Menlo, monospace">date</text><circle cx="151.6" cy="692" r="6" fill="#dc2626"/><text x="151.6" y="695" fill="white" font-size="8" font-weight="700" text-anchor="middle">!</text><rect x="61" y="704" width="278" height="24" fill="#f8fafc"/><text x="84" y="720" fill="#0f172a" font-size="12" font-weight="400">registration_deadline</text><text x="328" y="720" fill="#64748b" font-size="11" text-anchor="end" font-family="ui-monospace, SFMono-Regular, Menlo, monospace">date</text><circle cx="213.9" cy="716" r="6" fill="#dc2626"/><text x="213.9" y="719" fill="white" font-size="8" font-weight="700" text-anchor="middle">!</text></g><g><rect x="60" y="860" width="280" height="108" rx="5" fill="white" stroke="#94a3b8" stroke-width="1" filter="url(#entity-shadow)"/><rect x="60" y="860" width="280" height="32" fill="#334155" rx="5"/><rect x="60" y="886" width="280" height="6" fill="#334155"/><text x="72" y="880" fill="white" font-size="13" font-weight="600">instructors</text><text x="328" y="880" fill="white" font-size="10" text-anchor="end" opacity="0.85">Table</text><rect x="61" y="892" width="278" height="24" fill="#fef9c3"/><text x="84" y="908" fill="#854d0e" font-size="12" font-weight="600">id</text><text x="328" y="908" fill="#64748b" font-size="11" text-anchor="end" font-family="ui-monospace, SFMono-Regular, Menlo, monospace">int</text><circle cx="108.19" cy="904" r="6" fill="#ca8a04"/><text x="108.19" y="907" fill="white" font-size="8" font-weight="700" text-anchor="middle">P</text><rect x="117.19" y="898" width="18" height="12" rx="6" fill="#0e7490"/><text x="126.19" y="907" fill="white" font-size="8" font-weight="700" text-anchor="middle">dk</text><rect x="61" y="916" width="278" height="24" fill="#f8fafc"/><text x="84" y="932" fill="#0f172a" font-size="12" font-weight="400">full_name</text><text x="328" y="932" fill="#64748b" font-size="11" text-anchor="end" font-family="ui-monospace, SFMono-Regular, Menlo, monospace">varchar</text><circle cx="151.7" cy="928" r="6" fill="#dc2626"/><text x="151.7" y="931" fill="white" font-size="8" font-weight="700" text-anchor="middle">!</text><text x="84" y="956" fill="#0f172a" font-size="12" font-weight="400">department</text><text x="328" y="956" fill="#64748b" font-size="11" text-anchor="end" font-family="ui-monospace, SFMono-Regular, Menlo, monospace">varchar</text><circle cx="160.8" cy="952" r="6" fill="#dc2626"/><text x="160.8" y="955" fill="white" font-size="8" font-weight="700" text-anchor="middle">!</text></g><g><rect x="400" y="600" width="280" height="204" rx="5" fill="white" stroke="#94a3b8" stroke-width="1" filter="url(#entity-shadow)"/><rect x="400" y="600" width="280" height="32" fill="#334155" rx="5"/><rect x="400" y="626" width="280" height="6" fill="#334155"/><text x="412" y="620" fill="white" font-size="13" font-weight="600">course_offerings</text><text x="668" y="620" fill="white" font-size="10" text-anchor="end" opacity="0.85">Table</text><rect x="401" y="632" width="278" height="24" fill="#fef9c3"/><text x="424" y="648" fill="#854d0e" font-size="12" font-weight="600">course_code</text><text x="668" y="648" fill="#64748b" font-size="11" text-anchor="end" font-family="ui-monospace, SFMono-Regular, Menlo, monospace">varchar</text><circle cx="512.76" cy="644" r="6" fill="#ca8a04"/><text x="512.76" y="647" fill="white" font-size="8" font-weight="700" text-anchor="middle">P</text><rect x="521.76" y="638" width="18" height="12" rx="6" fill="#0891b2"/><text x="530.76" y="647" fill="white" font-size="8" font-weight="700" text-anchor="middle">fk</text><rect x="542.76" y="638" width="18" height="12" rx="6" fill="#0e7490"/><text x="551.76" y="647" fill="white" font-size="8" font-weight="700" text-anchor="middle">dk</text><rect x="401" y="656" width="278" height="24" fill="#fef9c3"/><text x="424" y="672" fill="#854d0e" font-size="12" font-weight="600">term_code</text><text x="668" y="672" fill="#64748b" font-size="11" text-anchor="end" font-family="ui-monospace, SFMono-Regular, Menlo, monospace">varchar</text><circle cx="499.53" cy="668" r="6" fill="#ca8a04"/><text x="499.53" y="671" fill="white" font-size="8" font-weight="700" text-anchor="middle">P</text><rect x="508.53" y="662" width="18" height="12" rx="6" fill="#0891b2"/><text x="517.53" y="671" fill="white" font-size="8" font-weight="700" text-anchor="middle">fk</text><rect x="529.53" y="662" width="18" height="12" rx="6" fill="#0e7490"/><text x="538.53" y="671" fill="white" font-size="8" font-weight="700" text-anchor="middle">dk</text><rect x="401" y="680" width="278" height="24" fill="#fef9c3"/><text x="424" y="696" fill="#854d0e" font-size="12" font-weight="600">section_number</text><text x="668" y="696" fill="#64748b" font-size="11" text-anchor="end" font-family="ui-monospace, SFMono-Regular, Menlo, monospace">int</text><circle cx="530.82" cy="692" r="6" fill="#ca8a04"/><text x="530.82" y="695" fill="white" font-size="8" font-weight="700" text-anchor="middle">P</text><rect x="539.82" y="686" width="18" height="12" rx="6" fill="#0e7490"/><text x="548.82" y="695" fill="white" font-size="8" font-weight="700" text-anchor="middle">dk</text><rect x="401" y="704" width="278" height="24" fill="#f8fafc"/><text x="424" y="720" fill="#0f172a" font-size="12" font-weight="400">instructor_id</text><text x="668" y="720" fill="#64748b" font-size="11" text-anchor="end" font-family="ui-monospace, SFMono-Regular, Menlo, monospace">int</text><rect x="501.7" y="710" width="18" height="12" rx="6" fill="#0891b2"/><text x="510.7" y="719" fill="white" font-size="8" font-weight="700" text-anchor="middle">fk</text><circle cx="528.7" cy="716" r="6" fill="#dc2626"/><text x="528.7" y="719" fill="white" font-size="8" font-weight="700" text-anchor="middle">!</text><text x="424" y="744" fill="#0f172a" font-size="12" font-weight="400">capacity</text><text x="668" y="744" fill="#64748b" font-size="11" text-anchor="end" font-family="ui-monospace, SFMono-Regular, Menlo, monospace">int</text><circle cx="485.4" cy="740" r="6" fill="#dc2626"/><text x="485.4" y="743" fill="white" font-size="8" font-weight="700" text-anchor="middle">!</text><rect x="401" y="752" width="278" height="24" fill="#f8fafc"/><text x="424" y="768" fill="#0f172a" font-size="12" font-weight="400">room</text><text x="668" y="768" fill="#64748b" font-size="11" text-anchor="end" font-family="ui-monospace, SFMono-Regular, Menlo, monospace">varchar</text><text x="424" y="792" fill="#0f172a" font-size="12" font-weight="400">schedule</text><text x="668" y="792" fill="#64748b" font-size="11" text-anchor="end" font-family="ui-monospace, SFMono-Regular, Menlo, monospace">varchar</text></g><g><rect x="400" y="340" width="280" height="204" rx="5" fill="white" stroke="#94a3b8" stroke-width="1" filter="url(#entity-shadow)"/><rect x="400" y="340" width="280" height="32" fill="#334155" rx="5"/><rect x="400" y="366" width="280" height="6" fill="#334155"/><text x="412" y="360" fill="white" font-size="13" font-weight="600">enrollments</text><text x="668" y="360" fill="white" font-size="10" text-anchor="end" opacity="0.85">Table</text><rect x="401" y="372" width="278" height="24" fill="#fef9c3"/><text x="424" y="388" fill="#854d0e" font-size="12" font-weight="600">course_code</text><text x="668" y="388" fill="#64748b" font-size="11" text-anchor="end" font-family="ui-monospace, SFMono-Regular, Menlo, monospace">varchar</text><circle cx="512.76" cy="384" r="6" fill="#ca8a04"/><text x="512.76" y="387" fill="white" font-size="8" font-weight="700" text-anchor="middle">P</text><rect x="521.76" y="378" width="18" height="12" rx="6" fill="#0891b2"/><text x="530.76" y="387" fill="white" font-size="8" font-weight="700" text-anchor="middle">fk</text><rect x="401" y="396" width="278" height="24" fill="#fef9c3"/><text x="424" y="412" fill="#854d0e" font-size="12" font-weight="600">term_code</text><text x="668" y="412" fill="#64748b" font-size="11" text-anchor="end" font-family="ui-monospace, SFMono-Regular, Menlo, monospace">varchar</text><circle cx="499.53" cy="408" r="6" fill="#ca8a04"/><text x="499.53" y="411" fill="white" font-size="8" font-weight="700" text-anchor="middle">P</text><rect x="508.53" y="402" width="18" height="12" rx="6" fill="#0891b2"/><text x="517.53" y="411" fill="white" font-size="8" font-weight="700" text-anchor="middle">fk</text><rect x="401" y="420" width="278" height="24" fill="#fef9c3"/><text x="424" y="436" fill="#854d0e" font-size="12" font-weight="600">section_number</text><text x="668" y="436" fill="#64748b" font-size="11" text-anchor="end" font-family="ui-monospace, SFMono-Regular, Menlo, monospace">int</text><circle cx="530.82" cy="432" r="6" fill="#ca8a04"/><text x="530.82" y="435" fill="white" font-size="8" font-weight="700" text-anchor="middle">P</text><rect x="539.82" y="426" width="18" height="12" rx="6" fill="#0891b2"/><text x="548.82" y="435" fill="white" font-size="8" font-weight="700" text-anchor="middle">fk</text><rect x="401" y="444" width="278" height="24" fill="#fef9c3"/><text x="424" y="460" fill="#854d0e" font-size="12" font-weight="600">student_id</text><text x="668" y="460" fill="#64748b" font-size="11" text-anchor="end" font-family="ui-monospace, SFMono-Regular, Menlo, monospace">int</text><circle cx="499.22" cy="456" r="6" fill="#ca8a04"/><text x="499.22" y="459" fill="white" font-size="8" font-weight="700" text-anchor="middle">P</text><rect x="508.22" y="450" width="18" height="12" rx="6" fill="#0891b2"/><text x="517.22" y="459" fill="white" font-size="8" font-weight="700" text-anchor="middle">fk</text><text x="424" y="484" fill="#0f172a" font-size="12" font-weight="400">status</text><text x="668" y="484" fill="#64748b" font-size="11" text-anchor="end" font-family="ui-monospace, SFMono-Regular, Menlo, monospace">varchar</text><circle cx="473.2" cy="480" r="6" fill="#dc2626"/><text x="473.2" y="483" fill="white" font-size="8" font-weight="700" text-anchor="middle">!</text><rect x="401" y="492" width="278" height="24" fill="#f8fafc"/><text x="424" y="508" fill="#0f172a" font-size="12" font-weight="400">enrolled_on</text><text x="668" y="508" fill="#64748b" font-size="11" text-anchor="end" font-family="ui-monospace, SFMono-Regular, Menlo, monospace">date</text><circle cx="501.8" cy="504" r="6" fill="#dc2626"/><text x="501.8" y="507" fill="white" font-size="8" font-weight="700" text-anchor="middle">!</text><text x="424" y="532" fill="#0f172a" font-size="12" font-weight="400">final_grade</text><text x="668" y="532" fill="#64748b" font-size="11" text-anchor="end" font-family="ui-monospace, SFMono-Regular, Menlo, monospace">varchar</text></g></svg>