<svg xmlns="http://www.w3.org/2000/svg" width="1136" height="988" viewBox="0 0 1136 988" font-family="system-ui, -apple-system, 'Segoe UI', Roboto, Helvetica, Arial, sans-serif"><defs><filter id="entity-shadow" x="-5%" y="-5%" width="110%" height="115%"><feDropShadow dx="0" dy="1" stdDeviation="1.5" flood-color="#0f172a" flood-opacity="0.12"/></filter></defs><g><rect x="36" y="24" width="1068" height="380" rx="6" fill="white" stroke="#cbd5e1" stroke-width="1.5" stroke-dasharray="4 3"/><rect x="36" y="24" width="1068" height="32" fill="#475569" rx="6"/><rect x="36" y="40" width="1068" height="16" fill="#475569"/><text x="48" y="45" fill="white" font-size="13" font-weight="600">Container · core</text></g><g><rect x="60" y="80" width="280" height="228" rx="5" fill="white" stroke="#94a3b8" stroke-width="1" filter="url(#entity-shadow)"/><rect x="60" y="80" width="280" height="32" fill="#0a7d3f" rx="5"/><rect x="60" y="106" width="280" height="6" fill="#0a7d3f"/><text x="72" y="100" fill="white" font-size="13" font-weight="600">dim_customer</text><text x="328" y="100" fill="white" font-size="10" text-anchor="end" opacity="0.85">Entity</text><rect x="61" y="112" width="278" height="24" fill="#fef9c3"/><text x="84" y="128" fill="#854d0e" font-size="12" font-weight="600">id</text><text x="328" y="128" fill="#64748b" font-size="11" text-anchor="end" font-family="ui-monospace, SFMono-Regular, Menlo, monospace">int</text><circle cx="108.19" cy="124" r="6" fill="#ca8a04"/><text x="108.19" y="127" fill="white" font-size="8" font-weight="700" text-anchor="middle">P</text><rect x="61" y="136" width="278" height="24" fill="#f8fafc"/><text x="84" y="152" fill="#0f172a" font-size="12" font-weight="400">customer_key</text><text x="328" y="152" fill="#64748b" font-size="11" text-anchor="end" font-family="ui-monospace, SFMono-Regular, Menlo, monospace">varchar</text><circle cx="176.7" cy="148" r="6" fill="#7c3aed"/><text x="176.7" y="151" fill="white" font-size="8" font-weight="700" text-anchor="middle">U</text><circle cx="191.7" cy="148" r="6" fill="#dc2626"/><text x="191.7" y="151" fill="white" font-size="8" font-weight="700" text-anchor="middle">!</text><text x="84" y="176" fill="#0f172a" font-size="12" font-weight="400">email</text><text x="328" y="176" fill="#64748b" font-size="11" text-anchor="end" font-family="ui-monospace, SFMono-Regular, Menlo, monospace">Email</text><circle cx="127.4" cy="172" r="6" fill="#7c3aed"/><text x="127.4" y="175" fill="white" font-size="8" font-weight="700" text-anchor="middle">U</text><circle cx="142.4" cy="172" r="6" fill="#dc2626"/><text x="142.4" y="175" fill="white" font-size="8" font-weight="700" text-anchor="middle">!</text><rect x="61" y="184" width="278" height="24" fill="#f8fafc"/><text x="84" y="200" fill="#0f172a" font-size="12" font-weight="400">phone</text><text x="328" y="200" fill="#64748b" font-size="11" text-anchor="end" font-family="ui-monospace, SFMono-Regular, Menlo, monospace">PhoneE164</text><text x="84" y="224" fill="#0f172a" font-size="12" font-weight="400">country</text><text x="328" y="224" fill="#64748b" font-size="11" text-anchor="end" font-family="ui-monospace, SFMono-Regular, Menlo, monospace">CountryCode</text><circle cx="139.9" cy="220" r="6" fill="#dc2626"/><text x="139.9" y="223" fill="white" font-size="8" font-weight="700" text-anchor="middle">!</text><rect x="61" y="232" width="278" height="24" fill="#f8fafc"/><text x="84" y="248" fill="#0f172a" font-size="12" font-weight="400">created_at</text><text x="328" y="248" fill="#64748b" font-size="11" text-anchor="end" font-family="ui-monospace, SFMono-Regular, Menlo, monospace">timestamp</text><circle cx="157.5" cy="244" r="6" fill="#dc2626"/><text x="157.5" y="247" fill="white" font-size="8" font-weight="700" text-anchor="middle">!</text><text x="84" y="272" fill="#0f172a" font-size="12" font-weight="400">is_active</text><text x="328" y="272" fill="#64748b" font-size="11" text-anchor="end" font-family="ui-monospace, SFMono-Regular, Menlo, monospace">boolean</text><circle cx="148.4" cy="268" r="6" fill="#dc2626"/><text x="148.4" y="271" fill="white" font-size="8" font-weight="700" text-anchor="middle">!</text><rect x="61" y="280" width="278" height="24" fill="#f8fafc"/><text x="84" y="296" fill="#0f172a" font-size="12" font-weight="400">engagement_score</text><text x="328" y="296" fill="#64748b" font-size="11" text-anchor="end" font-family="ui-monospace, SFMono-Regular, Menlo, monospace">decimal(5, 2)</text></g><g><rect x="440" y="80" width="280" height="252" rx="5" fill="white" stroke="#94a3b8" stroke-width="1" filter="url(#entity-shadow)"/><rect x="440" y="80" width="280" height="32" fill="#0a7d3f" rx="5"/><rect x="440" y="106" width="280" height="6" fill="#0a7d3f"/><text x="452" y="100" fill="white" font-size="13" font-weight="600">dim_product</text><text x="708" y="100" fill="white" font-size="10" text-anchor="end" opacity="0.85">Entity</text><rect x="441" y="112" width="278" height="24" fill="#fef9c3"/><text x="464" y="128" fill="#854d0e" font-size="12" font-weight="600">id</text><text x="708" y="128" fill="#64748b" font-size="11" text-anchor="end" font-family="ui-monospace, SFMono-Regular, Menlo, monospace">int</text><circle cx="488.19" cy="124" r="6" fill="#ca8a04"/><text x="488.19" y="127" fill="white" font-size="8" font-weight="700" text-anchor="middle">P</text><rect x="441" y="136" width="278" height="24" fill="#f8fafc"/><text x="464" y="152" fill="#0f172a" font-size="12" font-weight="400">sku</text><text x="708" y="152" fill="#64748b" font-size="11" text-anchor="end" font-family="ui-monospace, SFMono-Regular, Menlo, monospace">varchar</text><circle cx="498.1" cy="148" r="6" fill="#7c3aed"/><text x="498.1" y="151" fill="white" font-size="8" font-weight="700" text-anchor="middle">U</text><circle cx="513.1" cy="148" r="6" fill="#dc2626"/><text x="513.1" y="151" fill="white" font-size="8" font-weight="700" text-anchor="middle">!</text><text x="464" y="176" fill="#0f172a" font-size="12" font-weight="400">name</text><text x="708" y="176" fill="#64748b" font-size="11" text-anchor="end" font-family="ui-monospace, SFMono-Regular, Menlo, monospace">varchar</text><circle cx="508.1" cy="172" r="6" fill="#dc2626"/><text x="508.1" y="175" fill="white" font-size="8" font-weight="700" text-anchor="middle">!</text><rect x="441" y="184" width="278" height="24" fill="#f8fafc"/><text x="464" y="200" fill="#0f172a" font-size="12" font-weight="400">category</text><text x="708" y="200" fill="#64748b" font-size="11" text-anchor="end" font-family="ui-monospace, SFMono-Regular, Menlo, monospace">varchar</text><circle cx="526.6" cy="196" r="6" fill="#dc2626"/><text x="526.6" y="199" fill="white" font-size="8" font-weight="700" text-anchor="middle">!</text><text x="464" y="224" fill="#0f172a" font-size="12" font-weight="400">list_price</text><text x="708" y="224" fill="#64748b" font-size="11" text-anchor="end" font-family="ui-monospace, SFMono-Regular, Menlo, monospace">decimal(10, 2)</text><circle cx="528.9" cy="220" r="6" fill="#dc2626"/><text x="528.9" y="223" fill="white" font-size="8" font-weight="700" text-anchor="middle">!</text><rect x="441" y="232" width="278" height="24" fill="#f8fafc"/><text x="464" y="248" fill="#0f172a" font-size="12" font-weight="400">currency</text><text x="708" y="248" fill="#64748b" font-size="11" text-anchor="end" font-family="ui-monospace, SFMono-Regular, Menlo, monospace">CurrencyCode</text><circle cx="526.6" cy="244" r="6" fill="#dc2626"/><text x="526.6" y="247" fill="white" font-size="8" font-weight="700" text-anchor="middle">!</text><text x="464" y="272" fill="#0f172a" font-size="12" font-weight="400">is_active</text><text x="708" y="272" fill="#64748b" font-size="11" text-anchor="end" font-family="ui-monospace, SFMono-Regular, Menlo, monospace">boolean</text><circle cx="528.4" cy="268" r="6" fill="#dc2626"/><text x="528.4" y="271" fill="white" font-size="8" font-weight="700" text-anchor="middle">!</text><rect x="441" y="280" width="278" height="24" fill="#f8fafc"/><text x="464" y="296" fill="#0f172a" font-size="12" font-weight="400">launched_at</text><text x="708" y="296" fill="#64748b" font-size="11" text-anchor="end" font-family="ui-monospace, SFMono-Regular, Menlo, monospace">date</text><text x="464" y="320" fill="#0f172a" font-size="12" font-weight="400">discontinued_at</text><text x="708" y="320" fill="#64748b" font-size="11" text-anchor="end" font-family="ui-monospace, SFMono-Regular, Menlo, monospace">date</text></g><g><rect x="800" y="80" width="280" height="300" rx="5" fill="white" stroke="#94a3b8" stroke-width="1" filter="url(#entity-shadow)"/><rect x="800" y="80" width="280" height="32" fill="#0a7d3f" rx="5"/><rect x="800" y="106" width="280" height="6" fill="#0a7d3f"/><text x="812" y="100" fill="white" font-size="13" font-weight="600">dim_date</text><text x="1068" y="100" fill="white" font-size="10" text-anchor="end" opacity="0.85">Entity</text><rect x="801" y="112" width="278" height="24" fill="#fef9c3"/><text x="824" y="128" fill="#854d0e" font-size="12" font-weight="600">date_key</text><text x="1068" y="128" fill="#64748b" font-size="11" text-anchor="end" font-family="ui-monospace, SFMono-Regular, Menlo, monospace">int</text><circle cx="891.66" cy="124" r="6" fill="#ca8a04"/><text x="891.66" y="127" fill="white" font-size="8" font-weight="700" text-anchor="middle">P</text><rect x="801" y="136" width="278" height="24" fill="#f8fafc"/><text x="824" y="152" fill="#0f172a" font-size="12" font-weight="400">full_date</text><text x="1068" y="152" fill="#64748b" font-size="11" text-anchor="end" font-family="ui-monospace, SFMono-Regular, Menlo, monospace">date</text><circle cx="885.9" cy="148" r="6" fill="#7c3aed"/><text x="885.9" y="151" fill="white" font-size="8" font-weight="700" text-anchor="middle">U</text><circle cx="900.9" cy="148" r="6" fill="#dc2626"/><text x="900.9" y="151" fill="white" font-size="8" font-weight="700" text-anchor="middle">!</text><text x="824" y="176" fill="#0f172a" font-size="12" font-weight="400">year</text><text x="1068" y="176" fill="#64748b" font-size="11" text-anchor="end" font-family="ui-monospace, SFMono-Regular, Menlo, monospace">int</text><circle cx="862.3" cy="172" r="6" fill="#dc2626"/><text x="862.3" y="175" fill="white" font-size="8" font-weight="700" text-anchor="middle">!</text><rect x="801" y="184" width="278" height="24" fill="#f8fafc"/><text x="824" y="200" fill="#0f172a" font-size="12" font-weight="400">quarter</text><text x="1068" y="200" fill="#64748b" font-size="11" text-anchor="end" font-family="ui-monospace, SFMono-Regular, Menlo, monospace">int</text><circle cx="877.4" cy="196" r="6" fill="#dc2626"/><text x="877.4" y="199" fill="white" font-size="8" font-weight="700" text-anchor="middle">!</text><text x="824" y="224" fill="#0f172a" font-size="12" font-weight="400">month</text><text x="1068" y="224" fill="#64748b" font-size="11" text-anchor="end" font-family="ui-monospace, SFMono-Regular, Menlo, monospace">int</text><circle cx="872.3" cy="220" r="6" fill="#dc2626"/><text x="872.3" y="223" fill="white" font-size="8" font-weight="700" text-anchor="middle">!</text><rect x="801" y="232" width="278" height="24" fill="#f8fafc"/><text x="824" y="248" fill="#0f172a" font-size="12" font-weight="400">day_of_month</text><text x="1068" y="248" fill="#64748b" font-size="11" text-anchor="end" font-family="ui-monospace, SFMono-Regular, Menlo, monospace">int</text><circle cx="916.7" cy="244" r="6" fill="#dc2626"/><text x="916.7" y="247" fill="white" font-size="8" font-weight="700" text-anchor="middle">!</text><text x="824" y="272" fill="#0f172a" font-size="12" font-weight="400">day_of_week</text><text x="1068" y="272" fill="#64748b" font-size="11" text-anchor="end" font-family="ui-monospace, SFMono-Regular, Menlo, monospace">int</text><circle cx="911.8" cy="268" r="6" fill="#dc2626"/><text x="911.8" y="271" fill="white" font-size="8" font-weight="700" text-anchor="middle">!</text><rect x="801" y="280" width="278" height="24" fill="#f8fafc"/><text x="824" y="296" fill="#0f172a" font-size="12" font-weight="400">is_weekend</text><text x="1068" y="296" fill="#64748b" font-size="11" text-anchor="end" font-family="ui-monospace, SFMono-Regular, Menlo, monospace">boolean</text><circle cx="903.9" cy="292" r="6" fill="#dc2626"/><text x="903.9" y="295" fill="white" font-size="8" font-weight="700" text-anchor="middle">!</text><text x="824" y="320" fill="#0f172a" font-size="12" font-weight="400">is_holiday</text><text x="1068" y="320" fill="#64748b" font-size="11" text-anchor="end" font-family="ui-monospace, SFMono-Regular, Menlo, monospace">boolean</text><circle cx="893.9" cy="316" r="6" fill="#dc2626"/><text x="893.9" y="319" fill="white" font-size="8" font-weight="700" text-anchor="middle">!</text><rect x="801" y="328" width="278" height="24" fill="#f8fafc"/><text x="824" y="344" fill="#0f172a" font-size="12" font-weight="400">fiscal_year</text><text x="1068" y="344" fill="#64748b" font-size="11" text-anchor="end" font-family="ui-monospace, SFMono-Regular, Menlo, monospace">int</text><circle cx="899.3" cy="340" r="6" fill="#dc2626"/><text x="899.3" y="343" fill="white" font-size="8" font-weight="700" text-anchor="middle">!</text><text x="824" y="368" fill="#0f172a" font-size="12" font-weight="400">fiscal_quarter</text><text x="1068" y="368" fill="#64748b" font-size="11" text-anchor="end" font-family="ui-monospace, SFMono-Regular, Menlo, monospace">int</text><circle cx="914.4" cy="364" r="6" fill="#dc2626"/><text x="914.4" y="367" fill="white" font-size="8" font-weight="700" text-anchor="middle">!</text></g></svg>