<svg xmlns="http://www.w3.org/2000/svg" width="692" height="1016" viewBox="0 0 692 1016" font-family="system-ui, -apple-system, 'Segoe UI', Roboto, Helvetica, Arial, sans-serif"><defs><filter id="entity-shadow" x="-5%" y="-5%" width="110%" height="115%"><feDropShadow dx="0" dy="1" stdDeviation="1.5" flood-color="#0f172a" flood-opacity="0.12"/></filter></defs><g><path d="M 380 656 L 350 656 L 350 108 L 320 108" fill="none" stroke="#64748b" stroke-width="1.5" stroke-linecap="round" stroke-dasharray="1.5 4"/><g stroke="#64748b" fill="#64748b" stroke-linecap="round" stroke-linejoin="round" transform="translate(380 656) scale(-1 1)"><line x1="8" y1="0" x2="1" y2="-5" stroke-width="1.5" fill="none"/><line x1="8" y1="0" x2="1" y2="0" stroke-width="1.5" fill="none"/><line x1="8" y1="0" x2="1" y2="5" stroke-width="1.5" fill="none"/></g><g stroke="#64748b" fill="#64748b" stroke-linecap="round" stroke-linejoin="round" transform="translate(320 108)"><line x1="4" y1="-5" x2="4" y2="5" stroke-width="1.5" fill="none"/></g></g><g><path d="M 380 680 L 350 680 L 350 156 L 320 156" fill="none" stroke="#64748b" stroke-width="1.5" stroke-linecap="round" stroke-dasharray="1.5 4"/><g stroke="#64748b" fill="#64748b" stroke-linecap="round" stroke-linejoin="round" transform="translate(380 680) scale(-1 1)"><line x1="8" y1="0" x2="1" y2="-5" stroke-width="1.5" fill="none"/><line x1="8" y1="0" x2="1" y2="0" stroke-width="1.5" fill="none"/><line x1="8" y1="0" x2="1" y2="5" stroke-width="1.5" fill="none"/></g><g stroke="#64748b" fill="#64748b" stroke-linecap="round" stroke-linejoin="round" transform="translate(320 156)"><line x1="4" y1="-5" x2="4" y2="5" stroke-width="1.5" fill="none"/></g></g><g><path d="M 380 728 L 350 728 L 350 204 L 320 204" fill="none" stroke="#64748b" stroke-width="1.5" stroke-linecap="round" stroke-dasharray="1.5 4"/><g stroke="#64748b" fill="#64748b" stroke-linecap="round" stroke-linejoin="round" transform="translate(380 728) scale(-1 1)"><line x1="8" y1="0" x2="1" y2="-5" stroke-width="1.5" fill="none"/><line x1="8" y1="0" x2="1" y2="0" stroke-width="1.5" fill="none"/><line x1="8" y1="0" x2="1" y2="5" stroke-width="1.5" fill="none"/></g><g stroke="#64748b" fill="#64748b" stroke-linecap="round" stroke-linejoin="round" transform="translate(320 204)"><line x1="4" y1="-5" x2="4" y2="5" stroke-width="1.5" fill="none"/></g></g><g><path d="M 380 752 L 350 752 L 350 228 L 320 228" fill="none" stroke="#64748b" stroke-width="1.5" stroke-linecap="round" stroke-dasharray="1.5 4"/><g stroke="#64748b" fill="#64748b" stroke-linecap="round" stroke-linejoin="round" transform="translate(380 752) scale(-1 1)"><line x1="8" y1="0" x2="1" y2="-5" stroke-width="1.5" fill="none"/><line x1="8" y1="0" x2="1" y2="0" stroke-width="1.5" fill="none"/><line x1="8" y1="0" x2="1" y2="5" stroke-width="1.5" fill="none"/></g><g stroke="#64748b" fill="#64748b" stroke-linecap="round" stroke-linejoin="round" transform="translate(320 228)"><line x1="4" y1="-5" x2="4" y2="5" stroke-width="1.5" fill="none"/></g></g><g><path d="M 380 776 L 350 776 L 350 252 L 320 252" fill="none" stroke="#64748b" stroke-width="1.5" stroke-linecap="round" stroke-dasharray="1.5 4"/><g stroke="#64748b" fill="#64748b" stroke-linecap="round" stroke-linejoin="round" transform="translate(380 776) scale(-1 1)"><line x1="8" y1="0" x2="1" y2="-5" stroke-width="1.5" fill="none"/><line x1="8" y1="0" x2="1" y2="0" stroke-width="1.5" fill="none"/><line x1="8" y1="0" x2="1" y2="5" stroke-width="1.5" fill="none"/></g><g stroke="#64748b" fill="#64748b" stroke-linecap="round" stroke-linejoin="round" transform="translate(320 252)"><line x1="4" y1="-5" x2="4" y2="5" stroke-width="1.5" fill="none"/></g></g><g><path d="M 380 632 L 350 632 L 350 84 L 320 84" fill="none" stroke="#64748b" stroke-width="1.5"/><g stroke="#64748b" fill="#64748b" stroke-linecap="round" stroke-linejoin="round" transform="translate(380 632) scale(-1 1)"><line x1="8" y1="0" x2="1" y2="-5" stroke-width="1.5" fill="none"/><line x1="8" y1="0" x2="1" y2="0" stroke-width="1.5" fill="none"/><line x1="8" y1="0" x2="1" y2="5" stroke-width="1.5" fill="none"/><circle cx="14" cy="0" r="2.5" fill="white" stroke-width="1.25"/></g><text x="358" y="626" fill="#94a3b8" font-size="9" font-weight="500" text-anchor="end">0..*</text><g stroke="#64748b" fill="#64748b" stroke-linecap="round" stroke-linejoin="round" transform="translate(320 84)"><line x1="4" y1="-5" x2="4" y2="5" stroke-width="1.5" fill="none"/></g><text x="342" y="78" fill="#94a3b8" font-size="9" font-weight="500" text-anchor="start">1..1</text></g><g><path d="M 380 848 L 350 848 L 350 584 L 320 584" fill="none" stroke="#64748b" stroke-width="1.5"/><g stroke="#64748b" fill="#64748b" stroke-linecap="round" stroke-linejoin="round" transform="translate(380 848) scale(-1 1)"><line x1="8" y1="0" x2="1" y2="-5" stroke-width="1.5" fill="none"/><line x1="8" y1="0" x2="1" y2="0" stroke-width="1.5" fill="none"/><line x1="8" y1="0" x2="1" y2="5" stroke-width="1.5" fill="none"/></g><g stroke="#64748b" fill="#64748b" stroke-linecap="round" stroke-linejoin="round" transform="translate(320 584)"><line x1="4" y1="-5" x2="4" y2="5" stroke-width="1.5" fill="none"/></g></g><g><path d="M 380 872 L 350 872 L 350 608 L 320 608" fill="none" stroke="#64748b" stroke-width="1.5" stroke-linecap="round" stroke-dasharray="1.5 4"/><g stroke="#64748b" fill="#64748b" stroke-linecap="round" stroke-linejoin="round" transform="translate(380 872) scale(-1 1)"><line x1="8" y1="0" x2="1" y2="-5" stroke-width="1.5" fill="none"/><line x1="8" y1="0" x2="1" y2="0" stroke-width="1.5" fill="none"/><line x1="8" y1="0" x2="1" y2="5" stroke-width="1.5" fill="none"/></g><g stroke="#64748b" fill="#64748b" stroke-linecap="round" stroke-linejoin="round" transform="translate(320 608)"><line x1="4" y1="-5" x2="4" y2="5" stroke-width="1.5" fill="none"/></g></g><g><path d="M 380 896 L 350 896 L 350 632 L 320 632" fill="none" stroke="#64748b" stroke-width="1.5" stroke-linecap="round" stroke-dasharray="1.5 4"/><g stroke="#64748b" fill="#64748b" stroke-linecap="round" stroke-linejoin="round" transform="translate(380 896) scale(-1 1)"><line x1="8" y1="0" x2="1" y2="-5" stroke-width="1.5" fill="none"/><line x1="8" y1="0" x2="1" y2="0" stroke-width="1.5" fill="none"/><line x1="8" y1="0" x2="1" y2="5" stroke-width="1.5" fill="none"/></g><g stroke="#64748b" fill="#64748b" stroke-linecap="round" stroke-linejoin="round" transform="translate(320 632)"><line x1="4" y1="-5" x2="4" y2="5" stroke-width="1.5" fill="none"/></g></g><g><path d="M 380 920 L 350 920 L 350 656 L 320 656" fill="none" stroke="#64748b" stroke-width="1.5" stroke-linecap="round" stroke-dasharray="1.5 4"/><g stroke="#64748b" fill="#64748b" stroke-linecap="round" stroke-linejoin="round" transform="translate(380 920) scale(-1 1)"><line x1="8" y1="0" x2="1" y2="-5" stroke-width="1.5" fill="none"/><line x1="8" y1="0" x2="1" y2="0" stroke-width="1.5" fill="none"/><line x1="8" y1="0" x2="1" y2="5" stroke-width="1.5" fill="none"/></g><g stroke="#64748b" fill="#64748b" stroke-linecap="round" stroke-linejoin="round" transform="translate(320 656)"><line x1="4" y1="-5" x2="4" y2="5" stroke-width="1.5" fill="none"/></g></g><g><rect x="40" y="40" width="280" height="228" rx="5" fill="white" stroke="#94a3b8" stroke-width="1" filter="url(#entity-shadow)"/><rect x="40" y="40" width="280" height="32" fill="#1e3a8a" rx="5"/><rect x="40" y="66" width="280" height="6" fill="#1e3a8a"/><text x="52" y="60" fill="white" font-size="13" font-weight="600">customers</text><text x="308" y="60" fill="white" font-size="10" text-anchor="end" opacity="0.85">Collection</text><rect x="41" y="72" width="278" height="24" fill="#fef9c3"/><text x="64" y="88" fill="#854d0e" font-size="12" font-weight="600">customerID</text><text x="308" y="88" fill="#64748b" font-size="11" text-anchor="end" font-family="ui-monospace, SFMono-Regular, Menlo, monospace">objectId</text><circle cx="144.05" cy="84" r="6" fill="#ca8a04"/><text x="144.05" y="87" fill="white" font-size="8" font-weight="700" text-anchor="middle">P</text><rect x="153.05" y="78" width="18" height="12" rx="6" fill="#0e7490"/><text x="162.05" y="87" fill="white" font-size="8" font-weight="700" text-anchor="middle">dk</text><rect x="41" y="96" width="278" height="24" fill="#f8fafc"/><text x="64" y="112" fill="#0f172a" font-size="12" font-weight="400">name</text><text x="308" y="112" fill="#64748b" font-size="11" text-anchor="end" font-family="ui-monospace, SFMono-Regular, Menlo, monospace">string</text><rect x="102.1" y="102" width="18" height="12" rx="6" fill="#0f766e"/><text x="111.1" y="111" fill="white" font-size="8" font-weight="700" text-anchor="middle">dm</text><circle cx="129.1" cy="108" r="6" fill="#dc2626"/><text x="129.1" y="111" fill="white" font-size="8" font-weight="700" text-anchor="middle">!</text><text x="64" y="136" fill="#0f172a" font-size="12" font-weight="400">email</text><text x="308" y="136" fill="#64748b" font-size="11" text-anchor="end" font-family="ui-monospace, SFMono-Regular, Menlo, monospace">string</text><circle cx="107.4" cy="132" r="6" fill="#7c3aed"/><text x="107.4" y="135" fill="white" font-size="8" font-weight="700" text-anchor="middle">U</text><circle cx="122.4" cy="132" r="6" fill="#dc2626"/><text x="122.4" y="135" fill="white" font-size="8" font-weight="700" text-anchor="middle">!</text><rect x="41" y="144" width="278" height="24" fill="#f8fafc"/><text x="64" y="160" fill="#0f172a" font-size="12" font-weight="400">loyaltyTier</text><text x="308" y="160" fill="#64748b" font-size="11" text-anchor="end" font-family="ui-monospace, SFMono-Regular, Menlo, monospace">string</text><rect x="130.9" y="150" width="18" height="12" rx="6" fill="#0f766e"/><text x="139.9" y="159" fill="white" font-size="8" font-weight="700" text-anchor="middle">dm</text><text x="56" y="184" fill="#475569" font-size="9" text-anchor="middle">▾</text><text x="64" y="184" fill="#0f172a" font-size="12" font-weight="400">address</text><text x="308" y="184" fill="#64748b" font-size="11" text-anchor="end" font-family="ui-monospace, SFMono-Regular, Menlo, monospace">object</text><rect x="41" y="192" width="278" height="24" fill="#f8fafc"/><line x1="56" y1="192" x2="56" y2="216" stroke="#e2e8f0" stroke-width="1"/><text x="78" y="208" fill="#0f172a" font-size="12" font-weight="400">street</text><text x="308" y="208" fill="#64748b" font-size="11" text-anchor="end" font-family="ui-monospace, SFMono-Regular, Menlo, monospace">string</text><rect x="118.7" y="198" width="18" height="12" rx="6" fill="#0f766e"/><text x="127.7" y="207" fill="white" font-size="8" font-weight="700" text-anchor="middle">dm</text><line x1="56" y1="216" x2="56" y2="240" stroke="#e2e8f0" stroke-width="1"/><text x="78" y="232" fill="#0f172a" font-size="12" font-weight="400">city</text><text x="308" y="232" fill="#64748b" font-size="11" text-anchor="end" font-family="ui-monospace, SFMono-Regular, Menlo, monospace">string</text><rect x="106.6" y="222" width="18" height="12" rx="6" fill="#0f766e"/><text x="115.6" y="231" fill="white" font-size="8" font-weight="700" text-anchor="middle">dm</text><rect x="41" y="240" width="278" height="24" fill="#f8fafc"/><line x1="56" y1="240" x2="56" y2="264" stroke="#e2e8f0" stroke-width="1"/><text x="78" y="256" fill="#0f172a" font-size="12" font-weight="400">country</text><text x="308" y="256" fill="#64748b" font-size="11" text-anchor="end" font-family="ui-monospace, SFMono-Regular, Menlo, monospace">string</text><rect x="127.9" y="246" width="18" height="12" rx="6" fill="#0f766e"/><text x="136.9" y="255" fill="white" font-size="8" font-weight="700" text-anchor="middle">dm</text></g><g><rect x="40" y="540" width="280" height="156" rx="5" fill="white" stroke="#94a3b8" stroke-width="1" filter="url(#entity-shadow)"/><rect x="40" y="540" width="280" height="32" fill="#1e3a8a" rx="5"/><rect x="40" y="566" width="280" height="6" fill="#1e3a8a"/><text x="52" y="560" fill="white" font-size="13" font-weight="600">products</text><text x="308" y="560" fill="white" font-size="10" text-anchor="end" opacity="0.85">Collection</text><rect x="41" y="572" width="278" height="24" fill="#fef9c3"/><text x="64" y="588" fill="#854d0e" font-size="12" font-weight="600">productID</text><text x="308" y="588" fill="#64748b" font-size="11" text-anchor="end" font-family="ui-monospace, SFMono-Regular, Menlo, monospace">objectId</text><circle cx="133.55" cy="584" r="6" fill="#ca8a04"/><text x="133.55" y="587" fill="white" font-size="8" font-weight="700" text-anchor="middle">P</text><rect x="142.55" y="578" width="18" height="12" rx="6" fill="#0e7490"/><text x="151.55" y="587" fill="white" font-size="8" font-weight="700" text-anchor="middle">dk</text><rect x="41" y="596" width="278" height="24" fill="#f8fafc"/><text x="64" y="612" fill="#0f172a" font-size="12" font-weight="400">sku</text><text x="308" y="612" fill="#64748b" font-size="11" text-anchor="end" font-family="ui-monospace, SFMono-Regular, Menlo, monospace">string</text><rect x="92.1" y="602" width="18" height="12" rx="6" fill="#0f766e"/><text x="101.1" y="611" fill="white" font-size="8" font-weight="700" text-anchor="middle">dm</text><circle cx="119.1" cy="608" r="6" fill="#7c3aed"/><text x="119.1" y="611" fill="white" font-size="8" font-weight="700" text-anchor="middle">U</text><circle cx="134.1" cy="608" r="6" fill="#dc2626"/><text x="134.1" y="611" fill="white" font-size="8" font-weight="700" text-anchor="middle">!</text><text x="64" y="636" fill="#0f172a" font-size="12" font-weight="400">name</text><text x="308" y="636" fill="#64748b" font-size="11" text-anchor="end" font-family="ui-monospace, SFMono-Regular, Menlo, monospace">string</text><rect x="102.1" y="626" width="18" height="12" rx="6" fill="#0f766e"/><text x="111.1" y="635" fill="white" font-size="8" font-weight="700" text-anchor="middle">dm</text><circle cx="129.1" cy="632" r="6" fill="#dc2626"/><text x="129.1" y="635" fill="white" font-size="8" font-weight="700" text-anchor="middle">!</text><rect x="41" y="644" width="278" height="24" fill="#f8fafc"/><text x="64" y="660" fill="#0f172a" font-size="12" font-weight="400">brand</text><text x="308" y="660" fill="#64748b" font-size="11" text-anchor="end" font-family="ui-monospace, SFMono-Regular, Menlo, monospace">string</text><rect x="103" y="650" width="18" height="12" rx="6" fill="#0f766e"/><text x="112" y="659" fill="white" font-size="8" font-weight="700" text-anchor="middle">dm</text><text x="64" y="684" fill="#0f172a" font-size="12" font-weight="400">listPrice</text><text x="308" y="684" fill="#64748b" font-size="11" text-anchor="end" font-family="ui-monospace, SFMono-Regular, Menlo, monospace">Decimal128</text></g><g><rect x="380" y="540" width="280" height="444" rx="5" fill="white" stroke="#94a3b8" stroke-width="1" filter="url(#entity-shadow)"/><rect x="380" y="540" width="280" height="32" fill="#1e3a8a" rx="5"/><rect x="380" y="566" width="280" height="6" fill="#1e3a8a"/><text x="392" y="560" fill="white" font-size="13" font-weight="600">orders</text><text x="648" y="560" fill="white" font-size="10" text-anchor="end" opacity="0.85">Collection</text><rect x="381" y="572" width="278" height="24" fill="#fef9c3"/><text x="404" y="588" fill="#854d0e" font-size="12" font-weight="600">orderID</text><text x="648" y="588" fill="#64748b" font-size="11" text-anchor="end" font-family="ui-monospace, SFMono-Regular, Menlo, monospace">objectId</text><circle cx="459.48" cy="584" r="6" fill="#ca8a04"/><text x="459.48" y="587" fill="white" font-size="8" font-weight="700" text-anchor="middle">P</text><rect x="381" y="596" width="278" height="24" fill="#f8fafc"/><text x="404" y="612" fill="#0f172a" font-size="12" font-weight="400">orderDate</text><text x="648" y="612" fill="#64748b" font-size="11" text-anchor="end" font-family="ui-monospace, SFMono-Regular, Menlo, monospace">Date</text><circle cx="472.1" cy="608" r="6" fill="#dc2626"/><text x="472.1" y="611" fill="white" font-size="8" font-weight="700" text-anchor="middle">!</text><text x="404" y="636" fill="#0f172a" font-size="12" font-weight="400">customerID</text><text x="648" y="636" fill="#64748b" font-size="11" text-anchor="end" font-family="ui-monospace, SFMono-Regular, Menlo, monospace">objectId</text><rect x="474.9" y="626" width="18" height="12" rx="6" fill="#0891b2"/><text x="483.9" y="635" fill="white" font-size="8" font-weight="700" text-anchor="middle">fk</text><circle cx="501.9" cy="632" r="6" fill="#dc2626"/><text x="501.9" y="635" fill="white" font-size="8" font-weight="700" text-anchor="middle">!</text><rect x="381" y="644" width="278" height="24" fill="#f8fafc"/><text x="404" y="660" fill="#0f172a" font-size="12" font-weight="400">customerName</text><text x="648" y="660" fill="#64748b" font-size="11" text-anchor="end" font-family="ui-monospace, SFMono-Regular, Menlo, monospace">string</text><rect x="495.3" y="650" width="18" height="12" rx="6" fill="#0d9488"/><text x="504.3" y="659" fill="white" font-size="8" font-weight="700" text-anchor="middle">fm</text><text x="404" y="684" fill="#0f172a" font-size="12" font-weight="400">loyaltyTier</text><text x="648" y="684" fill="#64748b" font-size="11" text-anchor="end" font-family="ui-monospace, SFMono-Regular, Menlo, monospace">string</text><rect x="470.9" y="674" width="18" height="12" rx="6" fill="#0d9488"/><text x="479.9" y="683" fill="white" font-size="8" font-weight="700" text-anchor="middle">fm</text><rect x="381" y="692" width="278" height="24" fill="#f8fafc"/><text x="396" y="708" fill="#475569" font-size="9" text-anchor="middle">▾</text><text x="404" y="708" fill="#0f172a" font-size="12" font-weight="400">shipTo</text><text x="648" y="708" fill="#64748b" font-size="11" text-anchor="end" font-family="ui-monospace, SFMono-Regular, Menlo, monospace">object</text><line x1="396" y1="716" x2="396" y2="740" stroke="#e2e8f0" stroke-width="1"/><text x="418" y="732" fill="#0f172a" font-size="12" font-weight="400">street</text><text x="648" y="732" fill="#64748b" font-size="11" text-anchor="end" font-family="ui-monospace, SFMono-Regular, Menlo, monospace">string</text><rect x="458.7" y="722" width="18" height="12" rx="6" fill="#0d9488"/><text x="467.7" y="731" fill="white" font-size="8" font-weight="700" text-anchor="middle">fm</text><rect x="381" y="740" width="278" height="24" fill="#f8fafc"/><line x1="396" y1="740" x2="396" y2="764" stroke="#e2e8f0" stroke-width="1"/><text x="418" y="756" fill="#0f172a" font-size="12" font-weight="400">city</text><text x="648" y="756" fill="#64748b" font-size="11" text-anchor="end" font-family="ui-monospace, SFMono-Regular, Menlo, monospace">string</text><rect x="446.6" y="746" width="18" height="12" rx="6" fill="#0d9488"/><text x="455.6" y="755" fill="white" font-size="8" font-weight="700" text-anchor="middle">fm</text><line x1="396" y1="764" x2="396" y2="788" stroke="#e2e8f0" stroke-width="1"/><text x="418" y="780" fill="#0f172a" font-size="12" font-weight="400">country</text><text x="648" y="780" fill="#64748b" font-size="11" text-anchor="end" font-family="ui-monospace, SFMono-Regular, Menlo, monospace">string</text><rect x="467.9" y="770" width="18" height="12" rx="6" fill="#0d9488"/><text x="476.9" y="779" fill="white" font-size="8" font-weight="700" text-anchor="middle">fm</text><rect x="381" y="788" width="278" height="24" fill="#f8fafc"/><text x="396" y="804" fill="#475569" font-size="9" text-anchor="middle">▾</text><text x="404" y="804" fill="#0f172a" font-size="12" font-weight="400">lineItems</text><text x="648" y="804" fill="#64748b" font-size="11" text-anchor="end" font-family="ui-monospace, SFMono-Regular, Menlo, monospace">array of object</text><rect x="462" y="794" width="18" height="12" rx="6" fill="#0891b2"/><text x="471" y="803" fill="white" font-size="8" font-weight="700" text-anchor="middle">fk</text><rect x="483" y="794" width="18" height="12" rx="6" fill="#0d9488"/><text x="492" y="803" fill="white" font-size="8" font-weight="700" text-anchor="middle">fm</text><rect x="381" y="812" width="278" height="24" fill="#f1f5f9"/><line x1="396" y1="812" x2="396" y2="836" stroke="#e2e8f0" stroke-width="1"/><text x="410" y="828" fill="#475569" font-size="9" text-anchor="middle">▾</text><text x="418" y="828" fill="#64748b" font-size="12" font-weight="400" font-style="italic">lineItem</text><text x="648" y="828" fill="#64748b" font-size="11" text-anchor="end" font-family="ui-monospace, SFMono-Regular, Menlo, monospace">object</text><rect x="381" y="836" width="278" height="24" fill="#f8fafc"/><line x1="396" y1="836" x2="396" y2="860" stroke="#e2e8f0" stroke-width="1"/><line x1="410" y1="836" x2="410" y2="860" stroke="#e2e8f0" stroke-width="1"/><text x="432" y="852" fill="#0f172a" font-size="12" font-weight="400">productID</text><text x="648" y="852" fill="#64748b" font-size="11" text-anchor="end" font-family="ui-monospace, SFMono-Regular, Menlo, monospace">objectId</text><circle cx="498.9" cy="848" r="6" fill="#dc2626"/><text x="498.9" y="851" fill="white" font-size="8" font-weight="700" text-anchor="middle">!</text><line x1="396" y1="860" x2="396" y2="884" stroke="#e2e8f0" stroke-width="1"/><line x1="410" y1="860" x2="410" y2="884" stroke="#e2e8f0" stroke-width="1"/><text x="432" y="876" fill="#0f172a" font-size="12" font-weight="400">sku</text><text x="648" y="876" fill="#64748b" font-size="11" text-anchor="end" font-family="ui-monospace, SFMono-Regular, Menlo, monospace">string</text><rect x="381" y="884" width="278" height="24" fill="#f8fafc"/><line x1="396" y1="884" x2="396" y2="908" stroke="#e2e8f0" stroke-width="1"/><line x1="410" y1="884" x2="410" y2="908" stroke="#e2e8f0" stroke-width="1"/><text x="432" y="900" fill="#0f172a" font-size="12" font-weight="400">productName</text><text x="648" y="900" fill="#64748b" font-size="11" text-anchor="end" font-family="ui-monospace, SFMono-Regular, Menlo, monospace">string</text><line x1="396" y1="908" x2="396" y2="932" stroke="#e2e8f0" stroke-width="1"/><line x1="410" y1="908" x2="410" y2="932" stroke="#e2e8f0" stroke-width="1"/><text x="432" y="924" fill="#0f172a" font-size="12" font-weight="400">brand</text><text x="648" y="924" fill="#64748b" font-size="11" text-anchor="end" font-family="ui-monospace, SFMono-Regular, Menlo, monospace">string</text><rect x="381" y="932" width="278" height="24" fill="#f8fafc"/><line x1="396" y1="932" x2="396" y2="956" stroke="#e2e8f0" stroke-width="1"/><line x1="410" y1="932" x2="410" y2="956" stroke="#e2e8f0" stroke-width="1"/><text x="432" y="948" fill="#0f172a" font-size="12" font-weight="400">unitPrice</text><text x="648" y="948" fill="#64748b" font-size="11" text-anchor="end" font-family="ui-monospace, SFMono-Regular, Menlo, monospace">Decimal128</text><line x1="396" y1="956" x2="396" y2="980" stroke="#e2e8f0" stroke-width="1"/><line x1="410" y1="956" x2="410" y2="980" stroke="#e2e8f0" stroke-width="1"/><text x="432" y="972" fill="#0f172a" font-size="12" font-weight="400">qty</text><text x="648" y="972" fill="#64748b" font-size="11" text-anchor="end" font-family="ui-monospace, SFMono-Regular, Menlo, monospace">int32</text></g></svg>