<svg xmlns="http://www.w3.org/2000/svg" width="1032" height="988" viewBox="0 0 1032 988" font-family="system-ui, -apple-system, 'Segoe UI', Roboto, Helvetica, Arial, sans-serif"><defs><filter id="entity-shadow" x="-5%" y="-5%" width="110%" height="115%"><feDropShadow dx="0" dy="1" stdDeviation="1.5" flood-color="#0f172a" flood-opacity="0.12"/></filter></defs><g><path d="M 380 156 L 350 156 L 350 108 L 320 108" fill="none" stroke="#64748b" stroke-width="1.5" stroke-linecap="round" stroke-dasharray="1.5 4"/><g stroke="#64748b" fill="#64748b" stroke-linecap="round" stroke-linejoin="round" transform="translate(380 156) scale(-1 1)"><line x1="8" y1="0" x2="1" y2="-5" stroke-width="1.5" fill="none"/><line x1="8" y1="0" x2="1" y2="0" stroke-width="1.5" fill="none"/><line x1="8" y1="0" x2="1" y2="5" stroke-width="1.5" fill="none"/></g><g stroke="#64748b" fill="#64748b" stroke-linecap="round" stroke-linejoin="round" transform="translate(320 108)"><line x1="4" y1="-5" x2="4" y2="5" stroke-width="1.5" fill="none"/></g></g><g><path d="M 380 180 L 350 180 L 350 156 L 320 156" fill="none" stroke="#64748b" stroke-width="1.5" stroke-linecap="round" stroke-dasharray="1.5 4"/><g stroke="#64748b" fill="#64748b" stroke-linecap="round" stroke-linejoin="round" transform="translate(380 180) scale(-1 1)"><line x1="8" y1="0" x2="1" y2="-5" stroke-width="1.5" fill="none"/><line x1="8" y1="0" x2="1" y2="0" stroke-width="1.5" fill="none"/><line x1="8" y1="0" x2="1" y2="5" stroke-width="1.5" fill="none"/></g><g stroke="#64748b" fill="#64748b" stroke-linecap="round" stroke-linejoin="round" transform="translate(320 156)"><line x1="4" y1="-5" x2="4" y2="5" stroke-width="1.5" fill="none"/></g></g><g><path d="M 380 228 L 350 228 L 350 204 L 320 204" fill="none" stroke="#64748b" stroke-width="1.5" stroke-linecap="round" stroke-dasharray="1.5 4"/><g stroke="#64748b" fill="#64748b" stroke-linecap="round" stroke-linejoin="round" transform="translate(380 228) scale(-1 1)"><line x1="8" y1="0" x2="1" y2="-5" stroke-width="1.5" fill="none"/><line x1="8" y1="0" x2="1" y2="0" stroke-width="1.5" fill="none"/><line x1="8" y1="0" x2="1" y2="5" stroke-width="1.5" fill="none"/></g><g stroke="#64748b" fill="#64748b" stroke-linecap="round" stroke-linejoin="round" transform="translate(320 204)"><line x1="4" y1="-5" x2="4" y2="5" stroke-width="1.5" fill="none"/></g></g><g><path d="M 380 252 L 350 252 L 350 228 L 320 228" fill="none" stroke="#64748b" stroke-width="1.5" stroke-linecap="round" stroke-dasharray="1.5 4"/><g stroke="#64748b" fill="#64748b" stroke-linecap="round" stroke-linejoin="round" transform="translate(380 252) scale(-1 1)"><line x1="8" y1="0" x2="1" y2="-5" stroke-width="1.5" fill="none"/><line x1="8" y1="0" x2="1" y2="0" stroke-width="1.5" fill="none"/><line x1="8" y1="0" x2="1" y2="5" stroke-width="1.5" fill="none"/></g><g stroke="#64748b" fill="#64748b" stroke-linecap="round" stroke-linejoin="round" transform="translate(320 228)"><line x1="4" y1="-5" x2="4" y2="5" stroke-width="1.5" fill="none"/></g></g><g><path d="M 380 276 L 350 276 L 350 252 L 320 252" fill="none" stroke="#64748b" stroke-width="1.5" stroke-linecap="round" stroke-dasharray="1.5 4"/><g stroke="#64748b" fill="#64748b" stroke-linecap="round" stroke-linejoin="round" transform="translate(380 276) scale(-1 1)"><line x1="8" y1="0" x2="1" y2="-5" stroke-width="1.5" fill="none"/><line x1="8" y1="0" x2="1" y2="0" stroke-width="1.5" fill="none"/><line x1="8" y1="0" x2="1" y2="5" stroke-width="1.5" fill="none"/></g><g stroke="#64748b" fill="#64748b" stroke-linecap="round" stroke-linejoin="round" transform="translate(320 252)"><line x1="4" y1="-5" x2="4" y2="5" stroke-width="1.5" fill="none"/></g></g><g><path d="M 380 132 L 350 132 L 350 84 L 320 84" fill="none" stroke="#64748b" stroke-width="1.5"/><g stroke="#64748b" fill="#64748b" stroke-linecap="round" stroke-linejoin="round" transform="translate(380 132) scale(-1 1)"><line x1="8" y1="0" x2="1" y2="-5" stroke-width="1.5" fill="none"/><line x1="8" y1="0" x2="1" y2="0" stroke-width="1.5" fill="none"/><line x1="8" y1="0" x2="1" y2="5" stroke-width="1.5" fill="none"/><circle cx="14" cy="0" r="2.5" fill="white" stroke-width="1.25"/></g><text x="358" y="126" fill="#94a3b8" font-size="9" font-weight="500" text-anchor="end">0..*</text><g stroke="#64748b" fill="#64748b" stroke-linecap="round" stroke-linejoin="round" transform="translate(320 84)"><line x1="4" y1="-5" x2="4" y2="5" stroke-width="1.5" fill="none"/></g><text x="342" y="78" fill="#94a3b8" font-size="9" font-weight="500" text-anchor="start">1..1</text></g><g><path d="M 660 348 L 690 348 L 690 84 L 720 84" fill="none" stroke="#64748b" stroke-width="1.5"/><g stroke="#64748b" fill="#64748b" stroke-linecap="round" stroke-linejoin="round" transform="translate(660 348)"><line x1="8" y1="0" x2="1" y2="-5" stroke-width="1.5" fill="none"/><line x1="8" y1="0" x2="1" y2="0" stroke-width="1.5" fill="none"/><line x1="8" y1="0" x2="1" y2="5" stroke-width="1.5" fill="none"/></g><g stroke="#64748b" fill="#64748b" stroke-linecap="round" stroke-linejoin="round" transform="translate(720 84) scale(-1 1)"><line x1="4" y1="-5" x2="4" y2="5" stroke-width="1.5" fill="none"/></g></g><g><path d="M 660 372 L 690 372 L 690 108 L 720 108" fill="none" stroke="#64748b" stroke-width="1.5" stroke-linecap="round" stroke-dasharray="1.5 4"/><g stroke="#64748b" fill="#64748b" stroke-linecap="round" stroke-linejoin="round" transform="translate(660 372)"><line x1="8" y1="0" x2="1" y2="-5" stroke-width="1.5" fill="none"/><line x1="8" y1="0" x2="1" y2="0" stroke-width="1.5" fill="none"/><line x1="8" y1="0" x2="1" y2="5" stroke-width="1.5" fill="none"/></g><g stroke="#64748b" fill="#64748b" stroke-linecap="round" stroke-linejoin="round" transform="translate(720 108) scale(-1 1)"><line x1="4" y1="-5" x2="4" y2="5" stroke-width="1.5" fill="none"/></g></g><g><path d="M 660 396 L 690 396 L 690 132 L 720 132" fill="none" stroke="#64748b" stroke-width="1.5" stroke-linecap="round" stroke-dasharray="1.5 4"/><g stroke="#64748b" fill="#64748b" stroke-linecap="round" stroke-linejoin="round" transform="translate(660 396)"><line x1="8" y1="0" x2="1" y2="-5" stroke-width="1.5" fill="none"/><line x1="8" y1="0" x2="1" y2="0" stroke-width="1.5" fill="none"/><line x1="8" y1="0" x2="1" y2="5" stroke-width="1.5" fill="none"/></g><g stroke="#64748b" fill="#64748b" stroke-linecap="round" stroke-linejoin="round" transform="translate(720 132) scale(-1 1)"><line x1="4" y1="-5" x2="4" y2="5" stroke-width="1.5" fill="none"/></g></g><g><path d="M 660 420 L 690 420 L 690 156 L 720 156" fill="none" stroke="#64748b" stroke-width="1.5" stroke-linecap="round" stroke-dasharray="1.5 4"/><g stroke="#64748b" fill="#64748b" stroke-linecap="round" stroke-linejoin="round" transform="translate(660 420)"><line x1="8" y1="0" x2="1" y2="-5" stroke-width="1.5" fill="none"/><line x1="8" y1="0" x2="1" y2="0" stroke-width="1.5" fill="none"/><line x1="8" y1="0" x2="1" y2="5" stroke-width="1.5" fill="none"/></g><g stroke="#64748b" fill="#64748b" stroke-linecap="round" stroke-linejoin="round" transform="translate(720 156) scale(-1 1)"><line x1="4" y1="-5" x2="4" y2="5" stroke-width="1.5" fill="none"/></g></g><g><rect x="40" y="40" width="280" height="228" rx="5" fill="white" stroke="#94a3b8" stroke-width="1" filter="url(#entity-shadow)"/><rect x="40" y="40" width="280" height="32" fill="#1e3a8a" rx="5"/><rect x="40" y="66" width="280" height="6" fill="#1e3a8a"/><text x="52" y="60" fill="white" font-size="13" font-weight="600">customers</text><text x="308" y="60" fill="white" font-size="10" text-anchor="end" opacity="0.85">Collection</text><rect x="41" y="72" width="278" height="24" fill="#fef9c3"/><text x="64" y="88" fill="#854d0e" font-size="12" font-weight="600">customerID</text><text x="308" y="88" fill="#64748b" font-size="11" text-anchor="end" font-family="ui-monospace, SFMono-Regular, Menlo, monospace">objectId</text><circle cx="144.05" cy="84" r="6" fill="#ca8a04"/><text x="144.05" y="87" fill="white" font-size="8" font-weight="700" text-anchor="middle">P</text><rect x="153.05" y="78" width="18" height="12" rx="6" fill="#0e7490"/><text x="162.05" y="87" fill="white" font-size="8" font-weight="700" text-anchor="middle">dk</text><rect x="41" y="96" width="278" height="24" fill="#f8fafc"/><text x="64" y="112" fill="#0f172a" font-size="12" font-weight="400">name</text><text x="308" y="112" fill="#64748b" font-size="11" text-anchor="end" font-family="ui-monospace, SFMono-Regular, Menlo, monospace">string</text><rect x="102.1" y="102" width="18" height="12" rx="6" fill="#0f766e"/><text x="111.1" y="111" fill="white" font-size="8" font-weight="700" text-anchor="middle">dm</text><circle cx="129.1" cy="108" r="6" fill="#dc2626"/><text x="129.1" y="111" fill="white" font-size="8" font-weight="700" text-anchor="middle">!</text><text x="64" y="136" fill="#0f172a" font-size="12" font-weight="400">email</text><text x="308" y="136" fill="#64748b" font-size="11" text-anchor="end" font-family="ui-monospace, SFMono-Regular, Menlo, monospace">string</text><circle cx="107.4" cy="132" r="6" fill="#7c3aed"/><text x="107.4" y="135" fill="white" font-size="8" font-weight="700" text-anchor="middle">U</text><circle cx="122.4" cy="132" r="6" fill="#dc2626"/><text x="122.4" y="135" fill="white" font-size="8" font-weight="700" text-anchor="middle">!</text><rect x="41" y="144" width="278" height="24" fill="#f8fafc"/><text x="64" y="160" fill="#0f172a" font-size="12" font-weight="400">loyaltyTier</text><text x="308" y="160" fill="#64748b" font-size="11" text-anchor="end" font-family="ui-monospace, SFMono-Regular, Menlo, monospace">string</text><rect x="130.9" y="150" width="18" height="12" rx="6" fill="#0f766e"/><text x="139.9" y="159" fill="white" font-size="8" font-weight="700" text-anchor="middle">dm</text><text x="56" y="184" fill="#475569" font-size="9" text-anchor="middle">▾</text><text x="64" y="184" fill="#0f172a" font-size="12" font-weight="400">address</text><text x="308" y="184" fill="#64748b" font-size="11" text-anchor="end" font-family="ui-monospace, SFMono-Regular, Menlo, monospace">object</text><rect x="41" y="192" width="278" height="24" fill="#f8fafc"/><line x1="56" y1="192" x2="56" y2="216" stroke="#e2e8f0" stroke-width="1"/><text x="78" y="208" fill="#0f172a" font-size="12" font-weight="400">street</text><text x="308" y="208" fill="#64748b" font-size="11" text-anchor="end" font-family="ui-monospace, SFMono-Regular, Menlo, monospace">string</text><rect x="118.7" y="198" width="18" height="12" rx="6" fill="#0f766e"/><text x="127.7" y="207" fill="white" font-size="8" font-weight="700" text-anchor="middle">dm</text><line x1="56" y1="216" x2="56" y2="240" stroke="#e2e8f0" stroke-width="1"/><text x="78" y="232" fill="#0f172a" font-size="12" font-weight="400">city</text><text x="308" y="232" fill="#64748b" font-size="11" text-anchor="end" font-family="ui-monospace, SFMono-Regular, Menlo, monospace">string</text><rect x="106.6" y="222" width="18" height="12" rx="6" fill="#0f766e"/><text x="115.6" y="231" fill="white" font-size="8" font-weight="700" text-anchor="middle">dm</text><rect x="41" y="240" width="278" height="24" fill="#f8fafc"/><line x1="56" y1="240" x2="56" y2="264" stroke="#e2e8f0" stroke-width="1"/><text x="78" y="256" fill="#0f172a" font-size="12" font-weight="400">country</text><text x="308" y="256" fill="#64748b" font-size="11" text-anchor="end" font-family="ui-monospace, SFMono-Regular, Menlo, monospace">string</text><rect x="127.9" y="246" width="18" height="12" rx="6" fill="#0f766e"/><text x="136.9" y="255" fill="white" font-size="8" font-weight="700" text-anchor="middle">dm</text></g><g><rect x="720" y="40" width="280" height="156" rx="5" fill="white" stroke="#94a3b8" stroke-width="1" filter="url(#entity-shadow)"/><rect x="720" y="40" width="280" height="32" fill="#1e3a8a" rx="5"/><rect x="720" y="66" width="280" height="6" fill="#1e3a8a"/><text x="732" y="60" fill="white" font-size="13" font-weight="600">products</text><text x="988" y="60" fill="white" font-size="10" text-anchor="end" opacity="0.85">Collection</text><rect x="721" y="72" width="278" height="24" fill="#fef9c3"/><text x="744" y="88" fill="#854d0e" font-size="12" font-weight="600">productID</text><text x="988" y="88" fill="#64748b" font-size="11" text-anchor="end" font-family="ui-monospace, SFMono-Regular, Menlo, monospace">objectId</text><circle cx="813.55" cy="84" r="6" fill="#ca8a04"/><text x="813.55" y="87" fill="white" font-size="8" font-weight="700" text-anchor="middle">P</text><rect x="822.55" y="78" width="18" height="12" rx="6" fill="#0e7490"/><text x="831.55" y="87" fill="white" font-size="8" font-weight="700" text-anchor="middle">dk</text><rect x="721" y="96" width="278" height="24" fill="#f8fafc"/><text x="744" y="112" fill="#0f172a" font-size="12" font-weight="400">sku</text><text x="988" y="112" fill="#64748b" font-size="11" text-anchor="end" font-family="ui-monospace, SFMono-Regular, Menlo, monospace">string</text><rect x="772.1" y="102" width="18" height="12" rx="6" fill="#0f766e"/><text x="781.1" y="111" fill="white" font-size="8" font-weight="700" text-anchor="middle">dm</text><circle cx="799.1" cy="108" r="6" fill="#7c3aed"/><text x="799.1" y="111" fill="white" font-size="8" font-weight="700" text-anchor="middle">U</text><circle cx="814.1" cy="108" r="6" fill="#dc2626"/><text x="814.1" y="111" fill="white" font-size="8" font-weight="700" text-anchor="middle">!</text><text x="744" y="136" fill="#0f172a" font-size="12" font-weight="400">name</text><text x="988" y="136" fill="#64748b" font-size="11" text-anchor="end" font-family="ui-monospace, SFMono-Regular, Menlo, monospace">string</text><rect x="782.1" y="126" width="18" height="12" rx="6" fill="#0f766e"/><text x="791.1" y="135" fill="white" font-size="8" font-weight="700" text-anchor="middle">dm</text><circle cx="809.1" cy="132" r="6" fill="#dc2626"/><text x="809.1" y="135" fill="white" font-size="8" font-weight="700" text-anchor="middle">!</text><rect x="721" y="144" width="278" height="24" fill="#f8fafc"/><text x="744" y="160" fill="#0f172a" font-size="12" font-weight="400">brand</text><text x="988" y="160" fill="#64748b" font-size="11" text-anchor="end" font-family="ui-monospace, SFMono-Regular, Menlo, monospace">string</text><rect x="783" y="150" width="18" height="12" rx="6" fill="#0f766e"/><text x="792" y="159" fill="white" font-size="8" font-weight="700" text-anchor="middle">dm</text><text x="744" y="184" fill="#0f172a" font-size="12" font-weight="400">listPrice</text><text x="988" y="184" fill="#64748b" font-size="11" text-anchor="end" font-family="ui-monospace, SFMono-Regular, Menlo, monospace">Decimal128</text></g><g><rect x="380" y="40" width="280" height="444" rx="5" fill="white" stroke="#94a3b8" stroke-width="1" filter="url(#entity-shadow)"/><rect x="380" y="40" width="280" height="32" fill="#1e3a8a" rx="5"/><rect x="380" y="66" width="280" height="6" fill="#1e3a8a"/><text x="392" y="60" fill="white" font-size="13" font-weight="600">orders</text><text x="648" y="60" fill="white" font-size="10" text-anchor="end" opacity="0.85">Collection</text><rect x="381" y="72" width="278" height="24" fill="#fef9c3"/><text x="404" y="88" fill="#854d0e" font-size="12" font-weight="600">orderID</text><text x="648" y="88" fill="#64748b" font-size="11" text-anchor="end" font-family="ui-monospace, SFMono-Regular, Menlo, monospace">objectId</text><circle cx="459.48" cy="84" r="6" fill="#ca8a04"/><text x="459.48" y="87" fill="white" font-size="8" font-weight="700" text-anchor="middle">P</text><rect x="381" y="96" width="278" height="24" fill="#f8fafc"/><text x="404" y="112" fill="#0f172a" font-size="12" font-weight="400">orderDate</text><text x="648" y="112" fill="#64748b" font-size="11" text-anchor="end" font-family="ui-monospace, SFMono-Regular, Menlo, monospace">Date</text><circle cx="472.1" cy="108" r="6" fill="#dc2626"/><text x="472.1" y="111" fill="white" font-size="8" font-weight="700" text-anchor="middle">!</text><text x="404" y="136" fill="#0f172a" font-size="12" font-weight="400">customerID</text><text x="648" y="136" fill="#64748b" font-size="11" text-anchor="end" font-family="ui-monospace, SFMono-Regular, Menlo, monospace">objectId</text><rect x="474.9" y="126" width="18" height="12" rx="6" fill="#0891b2"/><text x="483.9" y="135" fill="white" font-size="8" font-weight="700" text-anchor="middle">fk</text><circle cx="501.9" cy="132" r="6" fill="#dc2626"/><text x="501.9" y="135" fill="white" font-size="8" font-weight="700" text-anchor="middle">!</text><rect x="381" y="144" width="278" height="24" fill="#f8fafc"/><text x="404" y="160" fill="#0f172a" font-size="12" font-weight="400">customerName</text><text x="648" y="160" fill="#64748b" font-size="11" text-anchor="end" font-family="ui-monospace, SFMono-Regular, Menlo, monospace">string</text><rect x="495.3" y="150" width="18" height="12" rx="6" fill="#0d9488"/><text x="504.3" y="159" fill="white" font-size="8" font-weight="700" text-anchor="middle">fm</text><text x="404" y="184" fill="#0f172a" font-size="12" font-weight="400">loyaltyTier</text><text x="648" y="184" fill="#64748b" font-size="11" text-anchor="end" font-family="ui-monospace, SFMono-Regular, Menlo, monospace">string</text><rect x="470.9" y="174" width="18" height="12" rx="6" fill="#0d9488"/><text x="479.9" y="183" fill="white" font-size="8" font-weight="700" text-anchor="middle">fm</text><rect x="381" y="192" width="278" height="24" fill="#f8fafc"/><text x="396" y="208" fill="#475569" font-size="9" text-anchor="middle">▾</text><text x="404" y="208" fill="#0f172a" font-size="12" font-weight="400">shipTo</text><text x="648" y="208" fill="#64748b" font-size="11" text-anchor="end" font-family="ui-monospace, SFMono-Regular, Menlo, monospace">object</text><line x1="396" y1="216" x2="396" y2="240" stroke="#e2e8f0" stroke-width="1"/><text x="418" y="232" fill="#0f172a" font-size="12" font-weight="400">street</text><text x="648" y="232" fill="#64748b" font-size="11" text-anchor="end" font-family="ui-monospace, SFMono-Regular, Menlo, monospace">string</text><rect x="458.7" y="222" width="18" height="12" rx="6" fill="#0d9488"/><text x="467.7" y="231" fill="white" font-size="8" font-weight="700" text-anchor="middle">fm</text><rect x="381" y="240" width="278" height="24" fill="#f8fafc"/><line x1="396" y1="240" x2="396" y2="264" stroke="#e2e8f0" stroke-width="1"/><text x="418" y="256" fill="#0f172a" font-size="12" font-weight="400">city</text><text x="648" y="256" fill="#64748b" font-size="11" text-anchor="end" font-family="ui-monospace, SFMono-Regular, Menlo, monospace">string</text><rect x="446.6" y="246" width="18" height="12" rx="6" fill="#0d9488"/><text x="455.6" y="255" fill="white" font-size="8" font-weight="700" text-anchor="middle">fm</text><line x1="396" y1="264" x2="396" y2="288" stroke="#e2e8f0" stroke-width="1"/><text x="418" y="280" fill="#0f172a" font-size="12" font-weight="400">country</text><text x="648" y="280" fill="#64748b" font-size="11" text-anchor="end" font-family="ui-monospace, SFMono-Regular, Menlo, monospace">string</text><rect x="467.9" y="270" width="18" height="12" rx="6" fill="#0d9488"/><text x="476.9" y="279" fill="white" font-size="8" font-weight="700" text-anchor="middle">fm</text><rect x="381" y="288" width="278" height="24" fill="#f8fafc"/><text x="396" y="304" fill="#475569" font-size="9" text-anchor="middle">▾</text><text x="404" y="304" fill="#0f172a" font-size="12" font-weight="400">lineItems</text><text x="648" y="304" fill="#64748b" font-size="11" text-anchor="end" font-family="ui-monospace, SFMono-Regular, Menlo, monospace">array of object</text><rect x="462" y="294" width="18" height="12" rx="6" fill="#0891b2"/><text x="471" y="303" fill="white" font-size="8" font-weight="700" text-anchor="middle">fk</text><rect x="483" y="294" width="18" height="12" rx="6" fill="#0d9488"/><text x="492" y="303" fill="white" font-size="8" font-weight="700" text-anchor="middle">fm</text><rect x="381" y="312" width="278" height="24" fill="#f1f5f9"/><line x1="396" y1="312" x2="396" y2="336" stroke="#e2e8f0" stroke-width="1"/><text x="410" y="328" fill="#475569" font-size="9" text-anchor="middle">▾</text><text x="418" y="328" fill="#64748b" font-size="12" font-weight="400" font-style="italic">lineItem</text><text x="648" y="328" fill="#64748b" font-size="11" text-anchor="end" font-family="ui-monospace, SFMono-Regular, Menlo, monospace">object</text><rect x="381" y="336" width="278" height="24" fill="#f8fafc"/><line x1="396" y1="336" x2="396" y2="360" stroke="#e2e8f0" stroke-width="1"/><line x1="410" y1="336" x2="410" y2="360" stroke="#e2e8f0" stroke-width="1"/><text x="432" y="352" fill="#0f172a" font-size="12" font-weight="400">productID</text><text x="648" y="352" fill="#64748b" font-size="11" text-anchor="end" font-family="ui-monospace, SFMono-Regular, Menlo, monospace">objectId</text><circle cx="498.9" cy="348" r="6" fill="#dc2626"/><text x="498.9" y="351" fill="white" font-size="8" font-weight="700" text-anchor="middle">!</text><line x1="396" y1="360" x2="396" y2="384" stroke="#e2e8f0" stroke-width="1"/><line x1="410" y1="360" x2="410" y2="384" stroke="#e2e8f0" stroke-width="1"/><text x="432" y="376" fill="#0f172a" font-size="12" font-weight="400">sku</text><text x="648" y="376" fill="#64748b" font-size="11" text-anchor="end" font-family="ui-monospace, SFMono-Regular, Menlo, monospace">string</text><rect x="381" y="384" width="278" height="24" fill="#f8fafc"/><line x1="396" y1="384" x2="396" y2="408" stroke="#e2e8f0" stroke-width="1"/><line x1="410" y1="384" x2="410" y2="408" stroke="#e2e8f0" stroke-width="1"/><text x="432" y="400" fill="#0f172a" font-size="12" font-weight="400">productName</text><text x="648" y="400" fill="#64748b" font-size="11" text-anchor="end" font-family="ui-monospace, SFMono-Regular, Menlo, monospace">string</text><line x1="396" y1="408" x2="396" y2="432" stroke="#e2e8f0" stroke-width="1"/><line x1="410" y1="408" x2="410" y2="432" stroke="#e2e8f0" stroke-width="1"/><text x="432" y="424" fill="#0f172a" font-size="12" font-weight="400">brand</text><text x="648" y="424" fill="#64748b" font-size="11" text-anchor="end" font-family="ui-monospace, SFMono-Regular, Menlo, monospace">string</text><rect x="381" y="432" width="278" height="24" fill="#f8fafc"/><line x1="396" y1="432" x2="396" y2="456" stroke="#e2e8f0" stroke-width="1"/><line x1="410" y1="432" x2="410" y2="456" stroke="#e2e8f0" stroke-width="1"/><text x="432" y="448" fill="#0f172a" font-size="12" font-weight="400">unitPrice</text><text x="648" y="448" fill="#64748b" font-size="11" text-anchor="end" font-family="ui-monospace, SFMono-Regular, Menlo, monospace">Decimal128</text><line x1="396" y1="456" x2="396" y2="480" stroke="#e2e8f0" stroke-width="1"/><line x1="410" y1="456" x2="410" y2="480" stroke="#e2e8f0" stroke-width="1"/><text x="432" y="472" fill="#0f172a" font-size="12" font-weight="400">qty</text><text x="648" y="472" fill="#64748b" font-size="11" text-anchor="end" font-family="ui-monospace, SFMono-Regular, Menlo, monospace">int32</text></g></svg>